<?xml version="1.0" encoding="UTF-8" standalone="no"?>
<!-- Created with Inkscape (http://www.inkscape.org/) -->

<svg
   width="210mm"
   height="297mm"
   viewBox="0 0 210 297"
   version="1.1"
   id="svg1"
   xml:space="preserve"
   inkscape:version="1.4.4 (dcaf3e7, 2026-05-05)"
   sodipodi:docname="3_m_template.svg"
   xmlns:inkscape="http://www.inkscape.org/namespaces/inkscape"
   xmlns:sodipodi="http://sodipodi.sourceforge.net/DTD/sodipodi-0.dtd"
   xmlns="http://www.w3.org/2000/svg"
   xmlns:svg="http://www.w3.org/2000/svg"><sodipodi:namedview
     id="namedview1"
     pagecolor="#ffffff"
     bordercolor="#000000"
     borderopacity="0.25"
     inkscape:showpageshadow="2"
     inkscape:pageopacity="0.0"
     inkscape:pagecheckerboard="0"
     inkscape:deskcolor="#d1d1d1"
     inkscape:document-units="mm"
     showgrid="false"
     inkscape:zoom="1.2472578"
     inkscape:cx="185.2063"
     inkscape:cy="56.524"
     inkscape:window-width="1366"
     inkscape:window-height="697"
     inkscape:window-x="-8"
     inkscape:window-y="-8"
     inkscape:window-maximized="1"
     inkscape:current-layer="layer1"
     inkscape:lockguides="true"
     showguides="true" /><defs
     id="defs1"><style
       id="style1">.cls-1{fill:#df928f;}.cls-2{fill:#edbc9e;}.cls-3{fill:#603c2e;}.cls-4{fill:#de9d95;}.cls-5{fill:#f0bfa0;}.cls-6{fill:#6f3e2f;}.cls-7{fill:#b56967;}.cls-8{fill:#8a5447;}.cls-9{fill:#b47c66;}.cls-10{fill:#663728;}.cls-11{fill:#f3c1a2;}.cls-12{fill:#f3c1a3;}.cls-13{fill:#f0be9e;}.cls-14{fill:#f2bd9d;}.cls-15{fill:#f2be9e;}.cls-16{fill:#fefefe;}.cls-17{fill:#db938a;}.cls-18{fill:#703725;}.cls-19{fill:#e09881;}.cls-20{fill:#683621;}.cls-21{fill:#ecd7a0;}.cls-22{fill:#e37847;}.cls-23{fill:#df6c6a;}.cls-24{fill:#f0898e;}.cls-25{fill:#e77744;}.cls-26{fill:#f19770;}.cls-27{fill:#df6970;}.cls-28{fill:#ebba3e;}.cls-29{fill:#b1c2ca;}</style></defs><g
     inkscape:label="طبقة 1"
     inkscape:groupmode="layer"
     id="layer1"
     style="display:inline"><g
       id="g1"
       transform="matrix(0.35399784,0,0,0.35471316,16.426793,-0.45242581)"><path
         id="path3"
         class="cls-2"
         transform="translate(-39.74,-2.1)"
         d="m 302.45964,-13.68863 c -0.008,0.01026 -0.0292,0.06644 -0.0598,0.155883 0.0156,-0.04358 0.043,-0.111974 0.0598,-0.155883 z" /><path
         id="path7"
         class="cls-3"
         transform="translate(-39.74,-2.1)"
         d="m 388.08831,76.572049 c -0.005,0.10026 -0.01,0.201398 -0.0146,0.301568 0.1036,0.08301 0.207,0.166226 0.30948,0.250578 -0.11619,-0.07839 -0.21913,-0.146942 -0.31094,-0.20833 -0.007,0.149302 -0.0138,0.298212 -0.0204,0.447254 0.0962,0.09712 0.2044,0.207763 0.327,0.335076 0.007,0.0076 0.0113,0.01331 0.0131,0.01602 v 0.0015 h -0.001 v -0.0015 c -0.0244,-0.01238 -0.20796,-0.16727 -0.2759,-0.228726 -0.0214,-0.01935 -0.0434,-0.03809 -0.0657,-0.05682 -0.0256,0.576881 -0.049,1.151415 -0.0686,1.721998 v 0.709487 c -0.3,0.2 -0.39997,0.399289 -0.79997,0.699289 -0.4,0.3 -0.79995,0.501268 -1.19995,0.801268 l -0.19999,-0.100523 -0.19999,0.100523 c -0.9,0.6 -1.90011,1.098688 -2.81011,1.698688 -2.9,2.1 -1.39998,4.51078 -0.39998,6.81078 h 0.69924 c 1.41,-0.3 1.5108,4.099923 3.7108,1.099923 -1.3,-1.7 -3.71081,-3.389914 -3.51081,-4.999914 0.2,-1.61 2.91003,-3.010189 4.81003,-3.910189 a 10.67,10.67 0 0 1 5.31073,-0.600222 c 2.01883,0.212508 3.75831,0.06162 5.24505,-0.623533 -1.39794,0.124715 -1.36555,0.02366 -2.91959,-0.260776 -0.50485,-0.16879 -1.01135,-0.334263 -1.51527,-0.506984 -0.15968,-0.02376 -0.30374,-0.07053 -0.40728,-0.141315 -0.0898,-0.03183 -0.1791,-0.06354 -0.26861,-0.09615 -0.0768,-0.02797 -0.14656,-0.0751 -0.2248,-0.09907 -0.34136,-0.104056 -0.69677,-0.154384 -1.03646,-0.265147 -0.27054,-0.0279 -0.53067,-0.07685 -0.74595,-0.16171 -0.0203,-0.008 -0.0405,-0.01594 -0.0628,-0.02477 -0.10678,-0.02414 -0.2086,-0.04722 -0.29779,-0.06847 -0.19247,0.234507 -0.35195,0.422394 -0.46714,0.537578 -0.0616,-0.244274 -0.12214,-0.488165 -0.18247,-0.731339 -0.3075,-0.103728 -0.40032,-0.163275 -1.24521,-0.598766 -0.10466,-0.05392 -0.36305,-0.202305 -0.40144,-0.246208 -3e-4,-3.96e-4 -7.9e-4,-0.002 -0.001,-0.0029 l -0.001,-0.0015 v -0.0015 -0.0015 -0.0015 -0.0015 -0.0015 h 0.001 0.001 c 0.005,-1.16e-4 0.0158,0.0012 0.0277,0.0044 0.092,0.02437 0.19843,0.05742 0.31532,0.09761 -0.0504,-0.03446 -0.0811,-0.06347 -0.0891,-0.0845 -5.1e-4,-0.0017 -0.001,-0.0057 -0.001,-0.0073 0,-7.69e-4 -8e-5,-0.0036 0,-0.0044 v -0.0015 -0.0015 -0.0015 c 1.7e-4,-3.29e-4 8.8e-4,-0.0034 0.001,-0.0044 h 0.001 l 0.001,-0.0015 v -0.0015 c 0.0196,-0.01523 0.0763,-0.02049 0.17372,-0.0102 0.36291,0.03835 0.71482,0.126093 1.05981,0.246208 -2e-4,-8e-4 2e-4,-0.0037 0,-0.0044 -0.20332,-0.141071 -0.40687,-0.280838 -0.61457,-0.415202 -0.001,-7.5e-4 -0.003,-0.0036 -0.004,-0.0044 h -0.001 -0.001 l -0.001,-0.0015 h -0.001 v 0.0015 c 0.004,0.0052 0.0218,0.02321 0.0394,0.03933 -0.0363,-0.03273 -0.12355,-0.110698 -0.34451,-0.308852 -0.608,-0.602135 -0.6083,-0.570889 -0.95763,-1.051847 -0.15404,-0.05337 -0.27629,-0.07541 -0.3737,-0.0743 z" /><path
         id="path12"
         class="cls-8"
         transform="translate(-39.74,-2.1)"
         d="m 302.45964,-13.68863 c -0.008,0.01026 -0.0292,0.06644 -0.0598,0.155883 0.0156,-0.04358 0.043,-0.111974 0.0598,-0.155883 z" /><path
         id="path13"
         class="cls-9"
         transform="translate(-39.74,-2.1)"
         d="m 302.45964,-13.68863 c -0.008,0.01026 -0.0292,0.06644 -0.0598,0.155883 0.0156,-0.04358 0.043,-0.111974 0.0598,-0.155883 z" /><path
         id="path23"
         class="cls-3"
         transform="translate(-39.74,-2.1)"
         d="m 387.47957,89.899324 c 0.53777,0.645319 1.0461,1.323125 1.54155,1.987145 0.0992,-0.03327 0.21536,-0.07306 0.35327,-0.120918 0.36918,-0.128118 0.73704,-0.261948 1.10506,-0.39335 0.20045,-0.07464 0.45578,-0.259551 0.7007,-0.423944 a 36,36 0 0 1 -3.70058,-1.048933 z m -40.74434,41.158966 c 0.33284,0.25626 0.66856,0.50895 0.97514,0.79544 0.17705,0.16543 0.34549,0.32295 0.50509,0.47347 0.35211,-0.0736 0.72874,-0.11692 1.13134,-0.13257 -0.78343,-0.30347 -0.9972,-0.3914 -2.02473,-0.85808 -0.19698,-0.0895 -0.39201,-0.18439 -0.58684,-0.27826 z" /><path
         id="path28"
         class="cls-6"
         transform="translate(-39.74,-2.1)"
         d="m 383.64469,89.485578 c -0.0405,6.89e-4 -0.0812,0.0053 -0.12408,0.01457 -0.2862,0.429297 -0.57325,0.856569 -0.85836,1.283486 0.12632,0.117589 0.2521,0.235739 0.37663,0.355472 h 0.001 v 0.0015 c 0.40006,0.135496 0.73804,0.494539 1.03937,0.801269 0.0661,0.05025 0.12647,0.09432 0.17955,0.13403 0.72439,-0.0017 1.62019,-0.0056 2.07437,-0.0044 0.3976,-0.001 1.48579,-0.0053 2.07145,-0.0029 -0.34186,-0.45197 -0.68163,-0.907832 -1.00726,-1.378182 a 0.35,0.35 0 0 0 -0.19999,-0.100522 c -2.12075,2.895458 -2.28136,-1.119878 -3.55168,-1.104294 z" /><path
         id="path41"
         class="cls-7"
         transform="translate(-39.74,-2.1)"
         d="m 339.6596,48.591763 c -2.0539,0.0602 -4.1001,0.19871 -6.1326,0.44871 -4.85,0.61 -9.31943,4.369323 -13.99943,6.809323 -1.83,3.46 -3.46102,7.020801 -5.59102,10.270801 -0.85,1.12 -2.67984,1.62877 -3.99984,2.43877 -0.1217,-0.283306 -0.27084,-0.566857 -0.43209,-0.850802 -0.10519,0.08286 -0.21737,0.170079 -0.33722,0.265147 -0.59675,0.45715 -1.14916,0.794687 -1.83496,1.143629 -0.14054,0.07152 -0.28262,0.154429 -0.4394,0.171908 -0.12814,0.01434 -0.2576,0.02414 -0.38684,0.03059 -0.0768,0.03844 -0.15327,0.07301 -0.23503,0.10635 0.0279,-0.0012 0.0536,-0.0021 0.0788,-0.0029 0.0277,-0.0081 0.0495,-0.01391 0.0569,-0.01457 h 0.001 v 0.0015 0.0015 h -0.001 c -0.003,0.0021 -0.008,0.0054 -0.019,0.0102 -0.0119,3.13e-4 -0.0254,9.14e-4 -0.0379,0.0015 -0.16627,0.04833 -0.62201,0.203865 -0.49195,0.15734 0.15876,-0.05677 0.29114,-0.104701 0.41312,-0.154426 -0.10817,0.0047 -0.23588,0.01151 -0.37371,0.0204 -0.43644,0.23475 -0.83594,0.448884 -1.10944,0.604593 -0.16698,0.09503 -0.36268,0.106827 -0.56056,0.112178 -0.0377,0.0076 -0.0731,0.01507 -0.10657,0.02185 -0.48254,0.187595 -0.72106,0.254021 -0.77807,0.234553 h -0.001 l -0.001,-0.0015 h -0.001 v -0.0015 l -0.001,-0.0015 -0.001,-0.0015 v -0.0015 -0.0015 l -0.001,-0.0015 v -0.0015 -0.0015 -0.0015 -0.0015 c 0.003,-0.02147 0.0363,-0.05937 0.0963,-0.107807 -0.16913,0.01159 -0.38571,0.01549 -0.74888,0.0204 -0.16649,0.0023 -0.33168,-0.02543 -0.49779,-0.03642 -0.0811,-0.0054 -0.16271,0.008 -0.24378,0.0087 -0.81256,0.0205 -1.60088,-0.102699 -2.35611,-0.336533 -0.13566,0.755827 -0.2752,1.50977 -0.42042,2.263947 0.45595,0.473045 0.81653,1.036018 1.23498,1.544263 0.13791,0.180622 0.52126,0.644672 0.54013,0.687633 v 0.0015 0.0015 h -0.001 c -0.005,-0.0033 -0.0184,-0.01495 -0.0394,-0.03642 -0.16884,-0.172782 -0.50942,-0.635698 -0.59413,-0.751735 0.72458,1.006616 1.47132,1.997945 2.20867,2.995286 0.0626,0.08485 0.15273,0.31724 0.20583,0.340903 8.3e-4,2.72e-4 0.004,0.0013 0.004,0.0015 h 0.001 0.001 0.001 0.001 0.001 l 0.001,-0.0015 h 0.001 l 0.001,-0.0015 h 0.001 l 0.001,-0.0015 c 0.004,-0.0045 0.0101,-0.01349 0.0131,-0.02331 0.046,-0.150229 -0.19618,-0.38349 -0.21751,-0.407919 0.0131,0.0096 0.0769,0.06275 0.23357,0.18502 0.0453,0.03788 0.0912,0.07625 0.13576,0.113635 0.24192,-0.03024 0.7034,0.435016 1.23937,1.069329 0.003,0.0036 0.006,0.0066 0.009,0.0102 h 0.001 v 0.0015 h 0.001 c 0.22497,0.02086 0.73474,0.539547 1.24666,1.161111 1.43009,1.40445 1.89091,2.177054 1.83204,2.479561 1.02642,1.184066 0.76115,0.883351 2.57362,3.465849 0.15851,0.225851 0.32555,0.446656 0.47444,0.678893 0.4875,-1.06269 1.12275,-2.258046 1.79408,-3.780529 1.12,1.93 1.73077,3.050142 2.64077,4.570142 -0.29873,-6.990314 1.5135,-12.859568 6.34719,-17.431225 0.11247,-0.229547 0.20407,-0.353864 0.24671,-0.311767 0.01,0.01147 0.0163,0.033 0.0204,0.0641 0.15499,-0.143092 0.31099,-0.285077 0.46713,-0.425401 0.018,-0.02018 0.0353,-0.04029 0.0525,-0.05973 -0.17969,-0.124737 0.37981,-0.534121 0.78537,-0.884308 v -0.0015 -0.0015 -0.0015 -0.0015 -0.0015 -0.0015 l 0.001,-0.0015 v -0.0015 c 0.11605,-0.100656 0.22029,-0.194927 0.28758,-0.276802 -0.22088,0.287538 -0.49636,0.54205 -0.69632,0.84206 0.10783,-0.09434 0.21564,-0.188249 0.32407,-0.281172 0.0802,-0.08558 0.15964,-0.171862 0.23941,-0.257863 0.0642,-0.110148 0.13127,-0.212407 0.20729,-0.292827 0.0551,-0.05816 0.22177,-0.188243 0.24525,-0.196675 v 0.0015 0.0015 0.0015 c -0.002,0.0025 -0.007,0.0066 -0.0117,0.01165 -0.14828,0.156504 -0.29405,0.315203 -0.44086,0.473477 -0.0195,0.03351 -0.0394,0.06729 -0.0584,0.10198 0.33754,-0.285835 0.67915,-0.5641 1.02332,-0.834776 0.17288,-0.587319 0.24482,-0.671916 0.92259,-0.973177 0.0208,-0.02671 0.0416,-0.05367 0.0628,-0.08013 0.18135,-0.226924 0.52525,-0.249997 0.79559,-0.356928 0.053,-0.02097 0.0943,-0.03763 0.14306,-0.05682 0.10605,-0.04682 0.34412,-0.173776 0.46859,-0.230183 3.37244,-2.176057 7.09228,-3.556174 11.43603,-3.556174 2.69957,0.2527 5.39569,0.544156 8.09019,0.826035 0.24114,0.0186 0.48171,0.03995 0.7226,0.06556 0.65814,0.0252 1.31711,0.02312 1.97364,0.07576 0.79979,0.06411 1.56685,0.188805 2.32545,0.362756 7.5e-4,6.5e-5 0.004,8e-6 0.004,0 7.5e-4,-3.2e-5 0.003,9e-6 0.003,0 -0.2,-0.51 -0.30019,-1.019805 -0.61019,-1.829805 16.07,2.68 26.94928,11.219729 32.35928,26.479729 0.29,0.71 0.68996,1.520439 0.99996,2.230439 a 5.43,5.43 0 0 0 1.12112,-0.199588 c -1.02,-2.34 -2.60002,-4.779846 0.39998,-6.909846 0.92,-0.61 1.93952,-1.120739 2.84952,-1.730739 l 0.2,-0.09907 0.21021,0.09907 c 0.4,-0.31 0.92039,-0.620207 1.22039,-0.820207 0.3,-0.2 0.51018,-0.509487 0.81018,-0.709487 h -0.0204 a 2.75,2.75 0 0 0 -0.61019,-0.509898 c -0.2,-0.2 -0.41019,-0.299898 -0.61019,-0.509898 a 15.25,15.25 0 0 1 -1.72986,0.109264 c -0.33313,-0.999398 -0.61933,-1.994463 -0.89194,-3.018596 -0.003,-0.0044 -0.007,-0.0087 -0.0102,-0.01311 -0.53357,-0.579477 -1.15204,-1.288333 -1.16783,-1.39712 -5e-5,-7.87e-4 -3e-5,-0.0037 0,-0.0044 v -0.0015 -0.0015 -0.0015 -0.0015 l 0.001,-0.0015 v -0.0015 l 0.001,-0.0015 c 0.0341,-9.17e-4 0.16254,0.09198 0.42042,0.317593 -0.0194,-0.043 -0.0475,-0.102885 -0.0803,-0.168995 -0.09,-0.157183 -0.17851,-0.314675 -0.26568,-0.473476 -0.0629,-0.114637 -0.0678,-0.25831 -0.0438,-0.415203 -0.0171,-0.02468 -0.034,-0.04816 -0.0511,-0.07284 0.017,0.02265 0.0335,0.04522 0.0511,0.06847 0.0208,-0.132722 0.0631,-0.275269 0.10803,-0.419574 a 10.93,10.93 0 0 1 -0.10949,-0.192304 0.94,0.94 0 0 1 -0.0686,-0.176279 c -0.14975,-0.149706 -0.32226,-0.322588 -0.51968,-0.520096 0.0746,0.429327 0.1822,0.694943 0.32115,0.925101 -0.0812,-0.117631 -0.16248,-0.234931 -0.24378,-0.352558 -0.0429,-0.08721 -0.43085,-0.833489 -0.53721,-1.166938 -0.0445,-0.05191 -0.0868,-0.101567 -0.12554,-0.148599 -0.13845,-0.168116 -0.19648,-0.388801 -0.2832,-0.588568 -0.003,-0.0064 -0.004,-0.01104 -0.006,-0.01457 -0.35548,-0.443113 -0.33932,-0.531843 -0.60144,-1.190248 -0.005,-0.0075 -0.0109,-0.01451 -0.0161,-0.02185 -0.005,0.0021 -0.009,0.003 -0.0131,0.0044 0.0229,0.0593 0.0438,0.112548 0.0584,0.151512 -0.0246,-0.05476 -0.0479,-0.10476 -0.0686,-0.148599 -0.0355,0.0067 -0.0679,-0.0088 -0.0978,-0.03933 -0.52655,0.98962 -0.74864,0.0197 -0.8058,-1.359243 -0.21956,-0.304029 -0.78893,-1.389245 -0.97661,-1.770074 l -0.001,-0.0015 v -0.0015 c -0.004,-0.0048 -0.007,-0.0098 -0.0102,-0.01457 -0.0188,-0.02535 -0.0381,-0.05048 -0.0569,-0.07576 -0.006,-0.0092 -0.0125,-0.02069 -0.0204,-0.03351 -0.0641,-0.09004 -0.12937,-0.178635 -0.19562,-0.266604 -3.44,-5.6 -6.18947,-11.899787 -12.99947,-14.339787 a 36.54,36.54 0 0 0 -9.74997,-2.240637 c -6.18,-0.3075 -12.41565,-0.828884 -18.57736,-0.648299 z m -33.76214,20.854826 c 0.0374,-0.02009 0.076,-0.03935 0.11387,-0.05973 -0.0482,0.02125 -0.0964,0.04214 -0.14306,0.06265 0.01,-6.43e-4 0.0195,-0.0023 0.0292,-0.0029 z m 0.11387,-0.05973 c 0.0408,-0.018 0.0808,-0.03682 0.12262,-0.05536 -0.008,1.18e-4 -0.0142,-1.07e-4 -0.0219,0 -0.0338,0.01825 -0.0672,0.03731 -0.10072,0.05536 z m 0.12262,-0.05536 c 0.1241,-0.0019 0.24868,-0.0055 0.37225,-0.01165 0.20998,-0.105148 0.41886,-0.241624 0.72113,-0.477847 -0.39958,0.180751 -0.76369,0.343518 -1.09338,0.489502 z m 15.71469,-0.973177 c -0.007,0.0078 -0.0137,0.01561 -0.0204,0.02331 0.008,-0.0069 0.0143,-0.01498 0.0219,-0.02185 z m 61.47927,0.946953 c 0.0506,0.151183 0.13034,0.377601 0.19124,0.555061 0.0227,0.03389 0.0468,0.06954 0.0715,0.10635 0.0164,0.02456 -0.0359,-0.04686 -0.0525,-0.07139 -0.005,-0.0071 -0.01,-0.01484 -0.0146,-0.02185 0.0226,0.06606 0.0424,0.125619 0.0569,0.170452 0.0648,0.111795 0.12293,0.227033 0.18247,0.34236 -0.1318,-0.343357 -0.2626,-0.686619 -0.39414,-1.029994 -0.0133,-0.01672 -0.0275,-0.03426 -0.0409,-0.05099 z m -78.35596,0.04662 c -0.30904,0.01744 -0.61448,0.05276 -0.91383,0.131116 -0.088,0.02302 -0.1344,0.04029 -0.14598,0.05245 l -0.001,0.0015 v 0.0015 0.0015 0.0015 0.0015 0.0015 0.0015 l 0.001,0.0015 h 0.001 c 0.0426,0.02409 0.34586,0.01194 0.73428,-0.01311 0.10505,-0.05991 0.21311,-0.12007 0.32407,-0.182106 z m 78.83186,1.245607 c 0.0306,0.05663 0.12291,0.240122 0.16204,0.31468 -0.0284,-0.07394 -0.0577,-0.147497 -0.0861,-0.221441 -0.0272,-0.03287 -0.0522,-0.06374 -0.0759,-0.09324 z m 0.55618,0.913446 c 0.016,0.04415 0.0313,0.08673 0.0438,0.125289 0.0164,0.02587 0.0322,0.05253 0.0482,0.07867 0.0762,0.07614 0.14917,0.148716 0.21897,0.218528 -0.005,-0.03016 -0.01,-0.06143 -0.0146,-0.09324 -0.10308,-0.113064 -0.20343,-0.223797 -0.29634,-0.329249 z m 0.29634,0.329249 c 0.17119,0.187766 0.35155,0.380568 0.52261,0.562344 a 0.94,0.94 0 0 1 -0.019,-0.282629 c -0.0415,-0.06681 -0.0826,-0.133259 -0.12408,-0.199589 -0.10763,-0.0839 -0.29023,-0.244686 -0.40437,-0.359842 0.003,0.09545 0.009,0.172155 0.0161,0.224355 0.003,0.01861 0.006,0.0373 0.009,0.05536 z m 0.0628,-0.295741 c 0.0715,0.06705 0.14223,0.135092 0.21021,0.205416 -0.043,-0.06849 -0.0869,-0.137397 -0.12992,-0.205416 -0.0261,-6.63e-4 -0.0525,-2.65e-4 -0.0803,0 z m -85.58195,0.807095 c -0.002,0.0088 -0.004,0.01744 -0.006,0.02622 0.15526,0.219537 0.31351,0.43692 0.47589,0.651212 0.14332,0.189121 -0.2219,-0.310568 -0.47005,-0.677436 z" /><path
         id="path42"
         class="cls-2"
         transform="translate(-39.74,-2.1)"
         d="m 394.86906,68.987681 c 0.0117,0.03086 0.0222,0.05935 0.0321,0.08741 0.0224,0.01766 0.0413,0.03654 0.0599,0.05099 v 0.0015 h -0.001 l -0.001,0.0015 -0.001,0.0015 v 0.0015 c -2.8e-4,6.74e-4 -0.001,0.0036 -0.001,0.0044 -7.9e-4,0.0072 0.001,0.01822 0.007,0.03351 -0.0157,-0.01858 -0.0309,-0.03687 -0.0467,-0.05536 0.006,0.01666 0.011,0.03236 0.0161,0.04808 0.0108,0.0031 0.0213,0.007 0.0321,0.0102 h 0.001 c 0.004,0.0013 0.009,0.0031 0.0131,0.0044 0.024,0.0056 0.0499,0.01201 0.0759,0.01894 -0.003,-0.0034 -0.006,-0.0068 -0.009,-0.0102 -0.0215,-0.01581 -0.0485,-0.03522 -0.0803,-0.05973 0.009,-9.79e-4 0.0214,0.0037 0.0365,0.01165 -0.0438,-0.04951 -0.088,-0.09994 -0.13284,-0.150055 z m 0.10948,0.18939 c -0.004,-9.47e-4 -0.009,-0.002 -0.0131,-0.0029 0.021,0.02485 0.042,0.04924 0.0628,0.0743 0.024,0.02898 0.0621,0.08323 0.0964,0.135487 0.0299,-0.0015 0.0591,-0.0029 0.089,-0.0044 -0.0495,-0.05755 -0.10101,-0.118025 -0.15474,-0.179193 -0.0268,-0.0078 -0.0535,-0.01541 -0.0803,-0.02331 z m 0.0803,0.02331 c 0.004,0.0012 0.008,0.0017 0.0117,0.0029 -0.003,-0.0019 -0.004,-0.0038 -0.007,-0.0058 -0.001,-2.28e-4 -0.006,-0.0012 -0.007,-0.0015 0.001,0.0012 0.002,0.0032 0.003,0.0044 z m -0.14306,-0.08595 c -0.004,-0.01265 -0.01,-0.02611 -0.0146,-0.03934 -0.0199,-0.01563 -0.0412,-0.03259 -0.0642,-0.05099 0.026,0.02983 0.053,0.06027 0.0788,0.09033 z m 1.16783,0.0204 c 0.004,0.0018 0.007,0.0025 0.0117,0.0044 v -0.0015 c -0.004,-0.0016 -0.008,-0.0013 -0.0117,-0.0029 z m -1.15031,0.03205 c 0.0172,0.05403 0.0306,0.102514 0.0409,0.147141 0.0116,0.02494 0.0234,0.05082 0.035,0.07576 0.0303,-0.0015 0.0602,-0.0043 0.0905,-0.0058 -0.0777,-0.10577 -0.11901,-0.170735 -0.13576,-0.209786 -0.0114,-0.0025 -0.0212,-0.0055 -0.0306,-0.0073 z m -0.64377,0.02331 c -0.0158,0.02859 -0.031,0.05731 -0.0467,0.08595 0.10515,0.04708 0.20802,0.09292 0.30656,0.135488 0.0604,-0.0029 0.12059,-0.0058 0.18101,-0.0087 -0.16812,-0.08391 -0.31605,-0.155341 -0.43939,-0.2127 -3.4e-4,-1.54e-4 -0.001,1.54e-4 -0.001,0 z m 0.8131,0.01894 c 0.002,0.002 0.004,0.004 0.006,0.0058 0.0224,0.0063 0.0447,0.01173 0.0672,0.01748 0.009,0.0024 0.0127,0.0026 0.0146,0.0029 -0.009,-0.0035 -0.0441,-0.01403 -0.0876,-0.02622 z m -0.073,0.225812 c 0.008,0.01653 0.0156,0.03302 0.0234,0.04953 0.0166,0.01546 0.0332,0.0312 0.0496,0.04662 -0.002,-0.0044 -0.003,-0.0076 -0.004,-0.01165 0.14181,0.127218 0.2508,0.221754 0.33284,0.288456 -0.0122,-0.06968 -0.0232,-0.136301 -0.0336,-0.198132 -0.0633,-0.03051 -0.12779,-0.06016 -0.19123,-0.09032 6.2e-4,0.0013 9.2e-4,0.0019 0.001,0.0029 l 0.001,0.0015 v 0.0015 h -0.001 c -0.002,-0.0015 -0.004,-0.0048 -0.009,-0.0102 -0.0565,-0.02686 -0.11391,-0.05404 -0.16934,-0.08013 z m -0.0277,0.10635 c -9e-5,0.01873 -0.002,0.03719 -0.003,0.05536 0.033,0.01252 0.0655,0.02396 0.0963,0.03496 -0.0255,-0.02684 -0.051,-0.05428 -0.0759,-0.08158 -0.006,-0.0031 -0.0115,-0.0056 -0.0175,-0.0087 z m 0.1051,0.05827 c 0.007,0.0147 0.0148,0.02902 0.0219,0.04371 0.009,0.0033 0.0186,0.0071 0.0277,0.0102 -0.005,-0.0105 -0.0102,-0.022 -0.0146,-0.03205 -0.0114,-0.0076 -0.0233,-0.01454 -0.035,-0.02185 z m 0.0438,0.09032 c 0.0432,0.08933 0.0871,0.178516 0.13284,0.266604 0.008,0.01457 0.0124,0.023 0.0146,0.02622 h 0.001 c -0.003,-0.01276 -0.0562,-0.13209 -0.10948,-0.252035 -0.0134,-0.01364 -0.0261,-0.02708 -0.0394,-0.04079 z" /><path
         id="path47"
         class="cls-14"
         transform="translate(-39.74,-2.1)"
         d="m 245.39187,165.14132 c -0.0335,0.0376 -0.0671,0.0743 -0.10072,0.11218 0.37682,0.69526 0.77732,1.43841 0.90361,1.63896 -0.008,-0.0369 -0.0172,-0.0774 -0.0277,-0.12092 -0.002,-0.005 -0.004,-0.01 -0.006,-0.0146 -0.24457,-0.54404 -0.50322,-1.08175 -0.76931,-1.61565 z m -6.22748,23.91567 c -0.6302,0.15059 -1.25997,0.30006 -1.8919,0.43997 0.34791,0.0819 0.69589,0.16417 1.04376,0.24621 0.28152,-0.23015 0.56368,-0.45938 0.84814,-0.68618 z" /><path
         id="path48"
         class="cls-14"
         transform="translate(-39.74,-2.1)"
         d="m 302.45964,-13.68863 c -0.008,0.01026 -0.0292,0.06644 -0.0598,0.155883 0.0156,-0.04358 0.043,-0.111974 0.0598,-0.155883 z" /><path
         id="path49"
         class="cls-6"
         transform="translate(-39.74,-2.1)"
         d="m 297.72553,69.137736 c 0.002,0.0012 0.004,0.0031 0.006,0.0044 l 0.001,-0.0015 v -0.0015 -0.0015 z m 0.006,0.0044 -0.004,0.0015 c 0.001,7.62e-4 0.003,6.95e-4 0.004,0.0015 2.8e-4,-0.001 -2.8e-4,-0.0019 0,-0.0029 z m 0,0.0029 c -0.0506,0.179688 -0.12498,0.350178 -0.19562,0.523009 0.005,-0.01168 0.01,-0.02043 0.0131,-0.02477 v -0.0015 h 0.001 v 0.0015 0.0015 0.0015 0.0015 c -0.004,0.08021 -0.0499,0.153379 -0.0671,0.23164 v 0.0015 0.0015 c -0.0148,0.04256 -0.0277,0.08579 -0.038,0.12966 0.5317,0.674599 1.00692,1.391205 1.49775,2.096409 0.003,-0.01575 0.006,-0.03087 0.009,-0.04662 -0.0137,-0.02517 -0.021,-0.04335 -0.0219,-0.05245 v -0.0015 -0.0015 -0.0015 h 0.001 v -0.0015 h 0.001 0.001 c 0.005,0.002 0.0157,0.0075 0.0263,0.01603 0.13389,-0.712001 0.26354,-1.423622 0.3883,-2.137201 -0.55978,-0.190618 -1.10059,-0.440889 -1.61745,-0.737166 z" /><path
         id="path51"
         class="cls-10"
         transform="translate(-39.74,-2.1)"
         d="m 302.45964,-13.68863 c -0.008,0.01026 -0.0292,0.06644 -0.0598,0.155883 0.0156,-0.04358 0.043,-0.111974 0.0598,-0.155883 z" /><path
         id="path72"
         class="cls-11"
         d="M 111.17,207.89 Z"
         transform="translate(-39.74,-2.1)" /><path
         id="path90"
         class="cls-8"
         transform="translate(-39.74,-2.1)"
         d="m 390.27946,78.337752 c 0.002,0.01063 0.006,0.02142 0.009,0.03205 0.0256,0.0086 0.0504,0.01729 0.0759,0.02622 -0.028,-0.01942 -0.0567,-0.03892 -0.0847,-0.05827 z m 0.15036,0.654127 c 0.0596,0.261038 0.11985,0.523523 0.17955,0.788156 0.11544,-0.123681 0.27594,-0.330687 0.47152,-0.587111 -0.14554,-0.03525 -0.24386,-0.06113 -0.25547,-0.06702 h -0.001 v -0.0015 h 0.001 c 0.003,1.81e-4 0.0104,0.0015 0.019,0.0029 -0.18963,-0.06073 -0.31122,-0.09848 -0.41458,-0.135487 z" /><path
         id="path91"
         class="cls-16"
         transform="translate(-39.74,-2.1)"
         d="m 384.99938,71.614384 v 0.0058 c 0.0285,0.0449 0.057,0.08991 0.0847,0.135487 -0.0266,-0.03159 -0.0526,-0.06275 -0.0788,-0.0947 -0.002,-0.002 -0.004,-0.0047 -0.006,-0.0073 v 0.170451 c 0.033,0.03609 0.0651,0.07307 0.0964,0.110721 0.0142,0.01716 0.0223,0.02871 0.0248,0.03496 l 0.001,0.0015 v 0.0015 0.0015 0.0015 h -0.001 -0.001 -0.001 c -0.0151,-0.0046 -0.0597,-0.03709 -0.11824,-0.0845 v 0.320508 c 0.1406,0.150766 0.27929,0.298039 0.40728,0.432685 -0.0891,-0.201095 -0.14921,-0.433087 -0.19123,-0.674523 -0.0431,-0.07019 -0.0859,-0.14099 -0.12846,-0.211243 0.0259,0.03081 0.0526,0.06276 0.0788,0.09324 -0.0552,-0.07891 -0.11124,-0.158316 -0.16642,-0.237466 z m 0.29634,0.02768 c 0.0631,0.167351 0.13642,0.34259 0.19123,0.435598 0.005,0.008 0.01,0.01536 0.0146,0.02331 -0.033,-0.128791 -0.0652,-0.257153 -0.0978,-0.386066 -0.03,-0.02701 -0.0659,-0.05178 -0.10802,-0.07284 z m -0.0467,0.383152 c 0.0622,0.183937 0.12535,0.367971 0.19561,0.547776 0.0193,-0.06447 0.0373,-0.12848 0.0525,-0.190848 -0.0361,-0.04716 -0.0704,-0.09446 -0.1051,-0.142771 -0.0499,-0.0694 -0.0975,-0.1415 -0.14306,-0.214157 z m 0.19561,0.547776 c -0.008,0.02819 -0.016,0.05611 -0.0248,0.0845 0.0364,0.03835 0.0722,0.07612 0.10657,0.112178 -0.0279,-0.06498 -0.056,-0.130644 -0.0817,-0.196675 z m 0.0817,0.196675 c 0.005,0.01174 0.009,0.02326 0.0146,0.03496 0.084,0.08425 0.15546,0.156239 0.21605,0.217071 -0.002,-0.0052 -0.003,-0.01081 -0.004,-0.01602 -0.067,-0.06966 -0.14307,-0.148853 -0.22626,-0.23601 z m 0.0146,0.03496 c -0.0354,-0.0355 -0.0726,-0.07374 -0.1124,-0.113634 0.058,0.121408 0.12716,0.231445 0.21021,0.323421 -0.0343,-0.06896 -0.0669,-0.139172 -0.0978,-0.209787 z m -0.1124,-0.113634 c -0.004,-0.0083 -0.008,-0.01637 -0.0117,-0.02477 -0.001,0.0034 -0.002,0.0068 -0.003,0.0102 0.005,0.005 0.01,0.0096 0.0146,0.01457 z m -0.0146,-0.01457 c -0.11813,-0.11847 -0.25579,-0.256543 -0.41458,-0.415202 v 0.158796 c 0.0904,0.254655 0.18124,0.510858 0.27152,0.767761 0.0314,-0.162444 0.0889,-0.338075 0.14306,-0.511355 z m 0.41166,2.094952 c 0.43927,1.247992 0.88984,2.503188 1.37367,3.728083 0.2,0.2 0.40144,0.301157 0.60144,0.501157 a 1,1 0 0 0 0.79996,-0.361299 c 0.0197,-0.568719 0.0428,-1.141283 0.0686,-1.716171 -0.0575,-0.07294 -0.12218,-0.159617 -0.2073,-0.276802 -0.3548,-0.12293 -0.54163,-0.07649 -0.64231,0.02477 0.18924,0.149471 0.37744,0.299943 0.56349,0.453081 -0.25995,-0.175395 -0.45474,-0.3048 -0.6029,-0.403548 -0.0596,0.08941 -0.0746,0.200452 -0.0817,0.279716 0.006,0.01061 0.0127,0.02145 0.019,0.03205 0.15653,0.150676 0.36857,0.3618 0.66129,0.665781 0.007,0.0076 0.0113,0.0133 0.0131,0.01602 v 0.0015 h -0.001 v -0.0015 c -0.0244,-0.01238 -0.20796,-0.16727 -0.2759,-0.228726 -0.10734,-0.09701 -0.23287,-0.180894 -0.30801,-0.304482 -0.0299,-0.04923 -0.0598,-0.099 -0.0891,-0.148598 -0.007,-0.0065 -0.0139,-0.01269 -0.0204,-0.01894 -0.003,0.03821 -0.005,0.06712 -0.0102,0.08013 l -0.001,0.0015 v 0.0015 l -0.001,0.0015 -0.001,0.0015 h -0.001 v 0.0015 h -0.001 -0.001 -0.001 l -0.001,-0.0015 h -0.001 c -0.0187,-0.01427 -0.0559,-0.08251 -0.12846,-0.230183 -0.41073,-0.378599 -0.25586,-0.163248 -0.74741,-0.887222 -0.0119,-0.01759 0.0238,0.03408 0.038,0.05099 -0.0651,-0.104474 -0.1127,-0.182194 -0.16349,-0.26369 -0.0121,-0.02684 -0.024,-0.05491 -0.0365,-0.08158 -0.011,-0.0102 -0.0226,-0.02034 -0.0336,-0.03059 -0.0631,-0.05877 -0.13977,-0.154736 -0.21313,-0.25932 -0.18716,-0.203263 -0.38515,-0.422883 -0.56349,-0.626446 z m 1.95467,1.949267 c 0.0115,-0.0172 0.0243,-0.03437 0.0394,-0.04953 -0.17341,-0.136944 -0.34672,-0.273196 -0.51822,-0.412288 0.002,0.01527 0.005,0.02913 0.007,0.04225 0.0223,0.04144 0.0433,0.08249 0.0657,0.123833 0.0605,0.06284 0.17664,0.142978 0.40582,0.29574 z" /><path
         id="path92"
         class="cls-8"
         transform="translate(-39.74,-2.1)"
         d="m 383.10019,89.890583 a 5.16,5.16 0 0 0 -1.10069,0.199589 v 0.09032 c 0.33523,0.299763 0.66734,0.602022 0.99266,0.913446 0.26726,-0.400717 0.53437,-0.800428 0.79851,-1.203359 z" /><path
         id="path93"
         class="cls-6"
         d="m 383.32,82.82 c 0.9,-0.59 1.89,-1.09 2.79,-1.69 a 27.56,27.56 0 0 0 -2.79,1.69 z"
         transform="translate(-39.74,-2.1)" /><path
         id="path94"
         class="cls-6"
         d="m 386.51,81 c 0.4,-0.3 0.79,-0.5 1.19,-0.8 a 8.27,8.27 0 0 1 -1.19,0.8 z"
         transform="translate(-39.74,-2.1)" /><path
         id="path95"
         class="cls-6"
         d="m 388.3,79 a 0.91,0.91 0 0 0 0.7,-0.3 v 0.8 c -0.2,-0.06 -0.4,-0.26 -0.7,-0.5 z"
         transform="translate(-39.74,-2.1)" /><path
         id="path96"
         class="cls-17"
         transform="translate(-39.74,-2.1)"
         d="m 302.45964,-13.68863 c -0.008,0.01026 -0.0292,0.06644 -0.0598,0.155883 0.0156,-0.04358 0.043,-0.111974 0.0598,-0.155883 z" /><path
         id="path104"
         class="cls-8"
         d="m 253.82,8.91 -0.9,-0.9 z"
         transform="translate(-39.74,-2.1)" /><path
         id="path105"
         class="cls-8"
         d="m 254.62,9.71 -0.9,-0.9 z"
         transform="translate(-39.74,-2.1)" /><path
         id="path148"
         class="cls-12"
         d="m 410.91,486.67 -1.79,-1.79 z"
         transform="translate(-39.74,-2.1)" /><path
         id="path166"
         class="cls-23"
         transform="translate(-39.74,-2.1)"
         d="m 354.64294,64.45833 c 0.35414,0.284707 0.70243,0.575645 1.04813,0.871197 0.19693,-0.02188 0.3729,-0.04393 0.49925,-0.06556 0.10354,0.0059 0.20718,0.01109 0.31094,0.01457 -0.0754,-0.0992 -0.1503,-0.199258 -0.22335,-0.300111 -0.5384,-0.183598 -1.08266,-0.356514 -1.63497,-0.520096 z m 2.2656,0.740081 c 0.0566,0.03733 0.10436,0.07076 0.13868,0.09615 0.0461,0.0015 0.0926,0.0039 0.13868,0.0058 -0.0922,-0.03389 -0.1847,-0.06869 -0.27736,-0.101979 z m -0.2832,0.24038 c -0.22997,0.0303 -0.46149,0.06715 -0.69194,0.100523 0.0418,0.03609 0.0838,0.07163 0.12554,0.107807 0.35633,0.186687 0.71488,0.368489 1.09339,0.50407 0.0255,0.01111 0.0496,0.02186 0.073,0.03205 -0.20384,-0.245271 -0.40463,-0.492764 -0.59998,-0.744451 z m -45.3354,20.771786 -0.004,0.0087 0.001,0.0015 c 8.4e-4,-0.0033 0.002,-0.0069 0.003,-0.0102 z m -0.007,0.01165 0.001,0.0015 v 0.0015 h 0.001 v -0.0015 -0.0015 z m -0.007,0.0058 c 0.003,0.0047 0.005,0.0099 0.007,0.01457 0.001,-0.0048 0.002,-0.0098 0.003,-0.01457 z m 0.007,0.01457 h -0.007 l 0.001,0.0015 h 0.001 z m 0,0.0102 c -0.009,0.03516 -0.0175,0.06977 -0.0263,0.104894 0.0206,-0.0052 0.0418,-0.0073 0.0628,-0.0073 0.006,6e-6 0.0105,-3.79e-4 0.0161,0 -0.0175,-0.03265 -0.0349,-0.06477 -0.0525,-0.09761 z m 0.36786,0.68472 c 1.7e-4,0.04074 10e-4,0.08147 0,0.122376 -10e-4,0.02504 0.004,0.06469 0.006,0.10635 0.0675,0.04892 0.13262,0.123169 0.18686,0.224355 0.002,0.002 0.004,0.0038 0.006,0.0058 0.0936,0.10889 0.0683,0.07627 0.12554,0.155883 0.006,0.0067 0.0127,0.01445 0.019,0.02185 -0.11179,-0.207672 -0.2254,-0.420027 -0.3416,-0.636644 z m 0.48466,0.925101 c 0.0104,0.01933 0.0217,0.03903 0.0321,0.05827 -0.002,-0.01812 -0.007,-0.03648 -0.0131,-0.05827 z m 0.0321,0.05827 h -0.004 v 0.0015 h 0.001 l 0.001,0.0015 h 0.001 c 2e-5,-0.0011 5e-5,-0.0024 0,-0.0029 z m 0,0.0087 c 10e-4,0.0022 0.002,0.005 0.003,0.0073 -6e-5,-0.0023 10e-5,-0.005 0,-0.0073 z m 0.003,0.0073 h -0.003 v 0.0015 l 0.001,0.0015 v 0.0015 0.0015 0.0015 h 0.001 c 0,-9.92e-4 10e-6,-0.0019 0,-0.0029 -2e-5,-0.0016 4e-5,-0.0028 0,-0.0044 z m 0,0.02185 c 3e-5,0.01521 0,0.0329 0,0.05099 v 0.0015 0.0015 0.0015 c 0.002,0.0015 0.004,0.0029 0.006,0.0044 4.1e-4,3.65e-4 0.002,0.002 0.003,0.0029 v 0.0015 0.0015 0.0015 0.0015 0.0015 c 0.0271,0.06198 0.0501,0.125156 0.0759,0.187934 h 0.001 v -0.0015 h 0.001 v 0.0015 0.0015 c 0.0119,0.01406 0.0182,0.05295 0.0263,0.07138 0.0292,0.06397 0.0386,0.109461 0.0409,0.116549 8e-5,-0.0025 -3e-5,-0.0061 0,-0.01166 0.003,0.01537 0.007,0.03124 0.0102,0.04662 0.012,0.0117 0.0239,0.02264 0.0336,0.03642 0.0924,0.130246 0.0584,0.102942 0.12701,0.218528 0.0509,0.08534 0.10944,0.165439 0.16057,0.250578 0.003,0.0037 0.007,0.0077 0.0102,0.01165 0.008,0.01229 0.0172,0.02323 0.0248,0.03496 0.008,0.0051 0.0148,0.01189 0.0204,0.01894 0.0684,0.07964 0.0627,0.07842 0.12116,0.167538 0.0144,0.02564 0.0293,0.05011 0.0438,0.07576 -0.22276,-0.41159 -0.46162,-0.841942 -0.70654,-1.296598 z m -0.003,0.09907 v 0.0015 0.0015 0.0015 0.0015 c -6e-5,7.29e-4 0,0.0022 0,0.0029 0.003,0.0166 0.005,0.0246 0.006,0.02768 -3.9e-4,-0.0051 1.2e-4,-0.02065 -0.003,-0.03642 z m 0.87734,1.481618 c 0.003,0.01166 0.006,0.02473 0.0102,0.03642 10e-4,2.94e-4 0.006,2.31e-4 0.0102,0.0015 -0.007,-0.0123 -0.0138,-0.02554 -0.0204,-0.03788 z m 0.18685,0.364213 c 0.0115,0.02108 0.0222,0.04168 0.0336,0.06264 -0.006,-0.01647 -0.0137,-0.03738 -0.0234,-0.06264 z m 0.0292,0.04079 v 0.0015 0.0015 c 7.2e-4,0.0042 0.003,0.01179 0.006,0.0204 0.0196,0.03559 0.039,0.07257 0.0584,0.107807 -0.002,-0.0057 -0.004,-0.01225 -0.006,-0.01748 -0.0357,-0.07676 -0.0519,-0.107834 -0.0569,-0.113634 z m 0.0642,0.131116 h -0.007 c 0.01,0.01846 0.0206,0.03699 0.0307,0.05536 -0.007,-0.0184 -0.0156,-0.03709 -0.0234,-0.05536 z m 0.0234,0.05536 h -0.004 c 0.005,0.01001 0.0102,0.02061 0.0161,0.03059 -0.004,-0.01 -0.008,-0.02053 -0.0117,-0.03059 z m 0.0117,0.03059 h -0.003 c 0.002,0.0031 0.004,0.0056 0.006,0.0087 -10e-4,-0.0031 -0.002,-0.0056 -0.003,-0.0087 z m 0.004,0.0204 c 0.006,0.01034 0.0119,0.02029 0.0175,0.03059 -0.005,-0.0097 -0.01,-0.01912 -0.0146,-0.03059 z m 0.0175,0.03059 h -0.001 c 0.009,0.01704 0.0185,0.03404 0.0277,0.05099 -0.01,-0.01975 -0.0181,-0.03512 -0.0263,-0.05099 z m 0.0336,0.07139 c 0.018,0.04507 0.0382,0.09115 0.0555,0.135487 0.0288,0.01654 0.0486,0.03955 0.0394,0.10635 v 0.0015 0.0015 0.0015 0.0015 c 0.005,0.01355 0.0102,0.02709 0.0146,0.04079 0.008,0.01348 0.0163,0.02726 0.0248,0.04079 0.0116,0.02222 0.0209,0.04615 0.035,0.06701 0.036,0.05568 0.0521,0.07847 0.0584,0.0845 -0.002,-0.0077 -0.009,-0.02693 -0.0117,-0.03351 0.005,0.006 0.0294,0.04568 0.1051,0.177736 0.0143,0.01255 0.028,0.02529 0.0423,0.03788 -0.11766,-0.213989 -0.23885,-0.434381 -0.36349,-0.662867 z m 0.10948,0.295741 v 0.0015 z m 3.72978,5.707943 c 0.0271,0.08014 0.0539,0.161425 0.0803,0.241837 0.002,0.0017 0.004,0.003 0.006,0.0044 0.0146,0.01893 0.0289,0.03817 0.0438,0.05682 v 0.0015 0.0015 c 0.12464,0.01112 0.20911,0.02613 0.36787,0.0641 -0.16153,-0.0906 -0.32664,-0.212107 -0.49779,-0.37004 z" /><path
         id="path167"
         class="cls-6"
         transform="translate(-39.74,-2.1)"
         d="m 332.31391,62.643093 c -0.0176,0.0043 -0.0353,0.0088 -0.0525,0.01311 0.13263,0.100743 0.29326,0.238349 0.42042,0.349644 0.004,-7.37e-4 0.008,-0.0022 0.0117,-0.0029 -0.0907,-0.08573 -0.21473,-0.203146 -0.37955,-0.359843 z m -8.6303,4.347245 v 0.0015 h 0.001 v -0.0015 z m -0.004,0.0044 v 0.0015 h 0.001 l 0.001,-0.0015 z m 0.0482,0.05245 c -0.0298,0.03605 -0.0589,0.07329 -0.0876,0.112177 -0.003,0.0099 -0.007,0.02055 -0.0102,0.03059 0.0358,-0.05172 0.0685,-0.09949 0.0978,-0.142771 z m -2.78821,2.287256 v 0.0015 0.0015 0.0015 0.0015 c 0.003,-0.0022 0.006,-0.0036 0.009,-0.0058 z m -0.0102,0.01165 v 0.0015 0.0015 h 0.001 l 0.001,-0.0015 v -0.0015 z m -0.007,0.0058 v 0.0015 0.0015 0.0015 h 0.001 c 0.002,-0.0015 0.004,-0.003 0.006,-0.0044 z m -0.003,0.0073 -0.0248,0.01457 c -0.002,0.0052 -0.004,0.01078 -0.006,0.01603 0.01,-0.009 0.0213,-0.02125 0.0306,-0.03059 z m -0.0438,0.03059 c -0.003,0.0065 -0.006,0.01384 -0.009,0.0204 0.007,-0.0067 0.0134,-0.01374 0.0204,-0.0204 z m -0.009,0.0204 h -0.0117 c -0.003,0.0059 -0.005,0.01153 -0.007,0.01748 0.006,-0.0059 0.0126,-0.01154 0.019,-0.01748 z m -0.019,0.01748 -0.0248,-0.01166 c -0.008,0.01919 -0.0165,0.03848 -0.0248,0.05827 0.0165,-0.01542 0.0329,-0.0313 0.0496,-0.04662 z m -0.0496,0.04662 -0.0248,-0.01748 c -0.009,0.02194 -0.0184,0.04439 -0.0277,0.06701 0.0152,-0.01462 0.0299,-0.02911 0.0453,-0.04371 h 0.001 v -0.0015 h 0.001 v -0.0015 -0.0015 z m -0.0525,0.04953 -0.0234,-0.01457 c -0.008,0.02006 -0.0165,0.04062 -0.0248,0.06119 0.016,-0.01547 0.0322,-0.03117 0.0482,-0.04662 z m -0.0482,0.04662 -0.0204,-0.0102 c -0.007,0.01638 -0.0137,0.03285 -0.0204,0.04953 0.0136,-0.0132 0.0273,-0.02614 0.0409,-0.03934 z m -0.0409,0.03934 -0.0175,-0.01311 c -0.007,0.01708 -0.015,0.03361 -0.0219,0.05099 0.013,-0.01276 0.0263,-0.02513 0.0394,-0.03788 z m -0.0394,0.03788 -0.0131,-0.01311 c -0.006,0.01474 -0.0116,0.02875 -0.0175,0.04371 0.0105,-0.01031 0.0201,-0.02029 0.0307,-0.03059 z m -0.0307,0.03059 -0.0131,-0.01166 c -0.005,0.0133 -0.0108,0.02733 -0.0161,0.04079 0.01,-0.0095 0.0195,-0.01964 0.0292,-0.02914 z m -0.0292,0.02914 h -0.009 c -0.002,0.0054 -0.005,0.01059 -0.007,0.01603 0.005,-0.0052 0.0108,-0.01084 0.0161,-0.01603 z m -0.0161,0.01603 -0.0102,-0.0087 c -0.004,0.01055 -0.008,0.02141 -0.0117,0.03205 0.008,-0.0076 0.0142,-0.01575 0.0219,-0.02331 z m -0.0219,0.02331 -0.006,-0.0073 c -0.003,0.0075 -0.006,0.01575 -0.009,0.02331 0.005,-0.0051 0.009,-0.01088 0.0146,-0.01603 z m -0.0146,0.01603 c -4.56374,4.530652 -6.27798,10.11692 -5.99392,16.847028 -0.89,-1.48 -1.48967,-2.479818 -2.58967,-4.479818 -0.62489,1.427487 -1.2207,2.525897 -1.69045,3.524123 0.085,0.128165 0.16594,0.259715 0.23649,0.396264 0.13316,0.257773 0.26218,0.51688 0.38831,0.777959 -2.2e-4,-0.0141 -0.001,-0.02812 -0.001,-0.04225 -9e-5,-0.03671 -3e-5,-0.01871 0,-0.05536 2.8e-4,-0.322327 0.16099,-0.485013 0.32407,-0.489502 0.002,-0.0087 0.005,-0.0175 0.007,-0.02622 0.005,0.0088 0.01,0.01741 0.0146,0.02622 0.16082,0.009 0.31708,0.173047 0.31677,0.490958 -2e-5,0.03377 -5e-5,0.01756 0,0.05099 1.2e-4,0.01875 -4e-5,0.03672 0,0.05536 0.10958,0.205735 0.21752,0.408017 0.32262,0.60605 v 0.0015 0.0029 c 0.0327,0.03426 0.0655,0.07788 0.0861,0.125289 0.0192,0.02488 0.0413,0.04957 0.0511,0.07867 0.025,0.06422 0.0377,0.103877 0.0438,0.138401 0.25268,0.475806 0.49322,0.927869 0.7226,1.357786 0.0123,0.01084 0.069,0.08367 0.0774,0.09615 0.026,0.04624 0.0416,0.09722 0.0642,0.145685 0.006,0.01727 0.01,0.03384 0.0146,0.05099 0.005,0.0094 0.0124,0.01976 0.0175,0.02914 v 0.0015 0.0029 c 0.0237,0.03338 0.0444,0.06884 0.0642,0.104894 0.0353,0.06549 0.0654,0.133309 0.0993,0.199588 0.008,0.01925 0.0135,0.03621 0.019,0.05099 v 0.0015 0.0015 0.0015 0.0015 0.0015 c 0.004,0.0051 0.0164,0.03018 0.0438,0.08887 0.16326,0.304439 0.32038,0.596047 0.47152,0.875568 1.09184,0.942002 2.09292,1.985957 2.74587,3.2852 0.39373,0.78343 0.70079,1.604531 0.97515,2.438769 0.12683,0.01966 0.25778,0.05408 0.56932,0.131116 0.0298,0.0074 0.10354,0.02974 0.15911,0.04662 v 0.0029 c 0.10545,0.04981 0.20105,0.09431 0.28758,0.135487 -0.0154,-0.04571 -0.0319,-0.0907 -0.0453,-0.136944 -0.008,-0.02692 -0.012,-0.05536 -0.0204,-0.08158 -0.0232,-0.06157 -0.0534,-0.119643 -0.0788,-0.18065 -0.005,-0.0117 -0.035,-0.124351 -0.0365,-0.131117 -0.0608,-0.185444 -0.14537,-0.364663 -0.18248,-0.556517 -0.0565,-0.142988 -0.11146,-0.28745 -0.15327,-0.435598 -0.0133,-0.04294 -0.0194,-0.08681 -0.0307,-0.12966 -0.017,-0.05893 -0.12455,-0.377765 -0.13868,-0.419573 -0.12825,-0.408245 -0.0199,-0.06496 -0.12554,-0.391893 -0.0212,-0.066 -0.043,-0.131966 -0.0628,-0.198132 -0.037,-0.117943 -0.0962,-0.265763 -0.0905,-0.391893 0.01,0.01417 0.017,0.0227 0.0204,0.02768 -0.005,-0.01077 -0.0192,-0.04239 -0.0423,-0.09615 -0.0316,-0.07338 -0.0695,-0.144487 -0.0949,-0.219984 -0.0466,-0.134097 -0.0791,-0.32262 -0.0876,-0.460365 -0.006,-0.06177 0.002,-0.123112 0.003,-0.185021 0.002,0.0061 0.004,0.01928 0.006,0.02622 0.005,-0.0156 0.002,-0.03213 0,-0.04808 -0.0119,-0.05044 -0.0308,-0.09904 -0.0453,-0.148599 -0.037,-0.12167 -0.0523,-0.178913 -0.0963,-0.29137 -0.0104,-0.02853 -0.0252,-0.05631 -0.0365,-0.0845 -0.0347,-0.07792 -0.0537,-0.115418 -0.0817,-0.206873 -0.0398,-0.133516 -0.0489,-0.274289 -0.0876,-0.407918 -0.0206,-0.08466 -0.0472,-0.168823 -0.0613,-0.254949 -0.005,-0.03658 0.002,-0.07989 0.0131,-0.122376 -0.006,-0.01538 -0.0159,-0.04566 -0.0336,-0.10635 -0.0158,-0.057 -0.0297,-0.114369 -0.0438,-0.171908 -8.8e-4,-0.01584 2.4e-4,-0.03257 -0.003,-0.04808 -0.0186,-0.101172 -0.0264,-0.136985 -0.0292,-0.145685 v -0.0015 -0.0029 -0.0015 -0.0015 -0.0029 -0.0015 l -0.001,-0.0015 v -0.0015 -0.0015 -0.0015 c -0.10432,-0.186936 -0.21487,-0.374779 -0.12554,-0.543405 v -0.0029 -0.0015 -0.0029 h 0.001 v -0.0015 -0.0015 -0.0015 -0.0015 c -0.0536,-0.221384 -0.0986,-0.448453 -0.1489,-0.673065 -0.1336,-0.596185 -0.25128,-1.197787 -0.26423,-1.800668 -8.7e-4,-0.0043 -0.002,-0.0088 -0.003,-0.01311 6.8e-4,-0.0093 0.002,-0.01835 0.003,-0.02768 -0.002,-0.124856 -1.6e-4,-0.249869 0.006,-0.374411 -0.0792,-0.193901 -0.15864,-0.38732 -0.23794,-0.581284 -0.002,-0.310227 -0.0112,-0.620801 -0.0102,-0.930928 -0.12816,-0.573853 -0.21844,-1.042113 -0.21021,-1.644785 0.003,-0.491795 0.009,-0.984103 0.0204,-1.47579 -0.24955,-1.768923 0.18656,-3.148214 0.57078,-4.864426 0.23367,-0.573238 0.4581,-1.150169 0.70217,-1.719085 0.0238,-0.05564 0.0913,-0.191231 0.11532,-0.214157 1.4e-4,0.0027 7.1e-4,0.0083 0,0.01311 -0.003,0.02249 -0.0137,0.05194 -0.0248,0.0845 0.41851,-0.923005 0.0931,-0.350323 0.88756,-1.634587 v -0.0015 -0.0015 c 0.0199,-0.04653 0.0402,-0.08551 0.0467,-0.09761 6e-5,0.0015 6e-5,0.0041 0,0.0058 -0.009,0.024 -0.0184,0.05202 -0.0292,0.08013 0.11751,-0.26133 0.23039,-0.524876 0.35619,-0.782329 0.0712,-0.146059 0.15918,-0.282477 0.2394,-0.423944 0.30669,-0.486882 0.61442,-0.974336 0.92113,-1.461221 -0.004,0.0098 -0.012,0.02693 -0.0131,0.03205 0.0861,-0.09041 0.20178,-0.22562 0.32554,-0.377324 0.11709,-0.2427 0.23332,-0.485598 0.35035,-0.728426 0.004,-0.0028 0.0101,-0.006 0.0146,-0.0087 v -0.0015 -0.0015 -0.0029 -0.0015 c 0.008,-0.01346 0.0171,-0.02813 0.0263,-0.04371 0.0981,-0.286652 0.20023,-0.573867 0.30072,-0.836232 z m -0.70216,2.221698 c -0.0291,0.02561 -0.0568,0.05065 -0.0861,0.07576 -0.0666,0.150468 -0.16203,0.358173 -0.16787,0.384609 0.003,-0.0036 0.009,-0.01172 0.0175,-0.02622 0.0813,-0.143847 0.15958,-0.287913 0.23649,-0.434142 z m -1.79409,2.437312 c -0.002,0.0059 -0.005,0.01002 -0.007,0.01602 -0.01,0.01715 -0.0197,0.03328 -0.0277,0.04662 v 0.0015 c -0.0323,0.07659 -0.0613,0.152596 -0.0642,0.164624 10e-4,-0.0018 0.004,-0.0054 0.007,-0.01166 0.0245,-0.05223 0.0491,-0.104802 0.073,-0.15734 0.008,-0.019 0.0148,-0.0376 0.0219,-0.05536 v -0.0015 -0.0015 z m -1.1255,16.807693 v 0.0015 h 0.001 v -0.0015 z m 0,0.0058 c -0.005,0.01298 -0.0199,0.05348 -0.0219,0.07138 0.008,-0.02618 0.0165,-0.05076 0.0219,-0.07138 z m -0.0248,0.155883 c 2.3e-4,0.0035 0,0.0065 0,0.0102 v 0.0015 0.0015 0.0015 l 0.001,0.0015 c 10e-4,0.0024 0.002,0.0062 0.003,0.0087 -0.002,-0.0103 -0.003,-0.01823 -0.004,-0.02477 z" /><path
         id="path168"
         class="cls-6"
         transform="translate(-39.74,-2.1)"
         d="m 349.32929,61.710709 a 12.9,12.9 0 0 0 0.2613,0.901791 c 0.96417,0.153914 1.89746,0.393188 2.84514,0.697831 0.42305,0.135995 0.90869,0.155304 1.26564,0.419574 0.35381,0.261948 0.70048,0.533179 1.0423,0.810009 a 37.38,37.38 0 0 1 1.56928,0.485131 c -0.078,-0.106843 -0.15512,-0.21463 -0.23065,-0.323421 -0.0201,-0.02894 0.65999,0.380204 0.92113,0.562345 a 37.38,37.38 0 0 1 0.092,0.03205 c 0.28432,0.01015 0.56858,0.02688 0.8496,0.06847 1.63083,0.241364 2.33115,0.61679 3.8597,1.349044 0.13203,0.06332 0.2455,0.160579 0.3664,0.243294 0.01,0.0066 0.0205,0.0135 0.0336,0.0204 0.41921,-0.01569 0.835,0.0034 1.24083,0.10198 1.07172,0.260402 1.99314,0.953022 2.93272,1.529693 0.0935,0.05732 0.50845,0.467245 0.64523,0.632274 0.0299,0.0067 0.0584,0.01621 0.0876,0.02622 0.0562,-0.0074 0.10044,0.0042 0.19123,0.08741 0.39814,0.232456 0.73945,0.714963 1.12697,0.979004 0.0469,0.03183 0.0793,0.08003 0.12116,0.118005 0.10246,0.09303 0.22793,0.164194 0.31239,0.273888 v 0.0015 h 0.001 v 0.0015 0.0015 0.0015 0.0015 0.0015 0.0015 h -0.001 c -0.0252,-0.0062 -0.13387,-0.0761 -0.16787,-0.09761 0.3302,0.236051 0.67075,0.458479 1.0058,0.687634 -0.23628,-0.0931 -0.82638,-0.389428 -0.908,-0.39335 -6.7e-4,1.7e-5 -0.004,-7.3e-5 -0.004,0 h -0.001 v 0.0015 h -0.001 v 0.0015 0.0015 0.0015 0.0015 l 0.001,0.0015 c 0.005,0.0081 0.0194,0.02259 0.0423,0.04079 0.67015,0.531765 1.47894,0.866923 2.16926,1.372354 0.23381,0.171198 0.40623,0.415152 0.58391,0.643928 0.002,0.0032 0.006,0.008 0.007,0.0102 v 0.0015 0.0015 c -0.0132,-0.0063 -0.0792,-0.06575 -0.14306,-0.125289 0.3813,0.368035 0.78349,0.714317 1.15762,1.089725 0.2641,0.289273 0.80184,0.495147 0.90653,0.833319 0.13317,0.110466 0.25847,0.227971 0.36641,0.362756 0.21955,0.274086 0.4074,0.57157 0.58684,0.87411 0.0397,0.03965 0.0745,0.07447 0.10218,0.10198 0.20015,0.198899 0.46608,0.361414 0.5737,0.622075 0.008,0.01842 0.0108,0.03199 0.0102,0.03934 v 0.0015 0.0029 l -0.001,0.0015 v 0.0015 h -0.001 v 0.0015 h -0.001 -0.001 -0.001 c -0.0449,-0.01215 -0.2046,-0.177469 -0.33867,-0.310309 0.0297,0.05152 0.0611,0.106153 0.0934,0.161711 0.63147,0.789863 1.26331,1.578979 1.89481,2.36884 0.0231,0.109175 0.0443,0.219661 0.0657,0.329248 0.0459,0.100964 0.0909,0.203082 0.13576,0.304482 0.0523,0.0983 0.11295,0.212873 0.18394,0.346731 0.19472,0.846351 0.39676,1.691097 0.58976,2.537835 0.0155,0.02797 0.0317,0.05632 0.0482,0.08595 0.13475,0.168502 0.27077,0.337602 0.40436,0.506984 0.57986,1.04454 1.11353,2.078405 1.39119,3.130774 0.0401,0.07582 0.0964,0.162015 0.0555,0.225811 0.0297,0.130435 0.0549,0.260792 0.0759,0.391893 0.3315,0.596803 0.69971,1.175329 0.9985,1.789014 0.0405,0.08325 0.0743,0.180926 0.10218,0.29137 0.10246,0.149941 0.20556,0.300229 0.30802,0.450167 0.32588,0.285217 0.6518,0.570062 0.97368,0.859542 l 0.0292,-0.126746 c -0.31,-0.82 -0.79032,-1.619489 -1.15032,-2.549489 -5.28,-14.95 -16.00025,-23.309903 -31.67025,-25.899903 z m 14.32351,6.271744 c -0.008,3.87e-4 -0.0144,0.0014 -0.019,0.0029 l -0.001,0.0015 -0.001,0.0015 -0.001,0.0015 v 0.0015 l -0.001,0.0015 v 0.0015 0.0015 0.0015 0.0015 c 0.0103,0.02016 0.0656,0.06029 0.17226,0.115091 1.61871,0.8313 2.41058,1.094264 2.82762,1.164024 0.0188,-0.02197 0.0612,-0.03857 0.13138,-0.04808 0.0634,-0.0086 0.12545,-0.0083 0.18539,-0.0015 -0.0534,-0.0423 -0.12566,-0.103467 -0.22043,-0.18502 -0.72603,-0.403856 -2.80303,-1.073976 -3.06848,-1.060588 z m 10.94262,8.289484 c 0.0199,0.03416 0.0428,0.06636 0.0628,0.100523 0.0374,0.03084 0.0874,0.0803 0.1416,0.13403 -0.0185,-0.03202 -0.0359,-0.06271 -0.0525,-0.09178 -0.0502,-0.04756 -0.10106,-0.09551 -0.15182,-0.142772 z m 0.0628,0.100523 c 0.17209,0.294976 0.34302,0.591536 0.54159,0.868283 0.0237,0.033 0.0377,0.05027 0.0438,0.05536 v 0.0015 h 0.001 v -0.0015 c -0.007,-0.0341 -0.18799,-0.343448 -0.35327,-0.627903 h 0.001 c -0.0786,-0.09825 -0.1565,-0.197493 -0.23503,-0.295741 z m 2.20867,3.05356 c 0.001,0.007 0.002,0.01488 0.003,0.02185 0.0127,0.02371 0.0264,0.04857 0.0409,0.07576 -0.0138,-0.03123 -0.0279,-0.06425 -0.0438,-0.09761 z m 0.007,0.04953 c 9.7e-4,0.0019 0.002,0.004 0.003,0.0058 -3.6e-4,-0.0019 -0.001,-0.0039 -0.001,-0.0058 z m 0.003,0.0058 c 0.12355,0.6433 0.23042,1.289304 0.4102,1.918673 0.0174,0.06075 0.0297,0.09518 0.0365,0.10635 l 0.001,0.0015 v 0.0015 h 0.001 0.001 c 0.0215,-0.0567 -0.22432,-1.343696 -0.35327,-1.81378 -0.006,-0.02365 -0.0165,-0.05073 -0.0277,-0.08013 -0.0224,-0.04274 -0.0461,-0.08791 -0.0701,-0.13403 z m 0.36057,2.422743 v 0.0015 c 0.002,0.0041 0.008,0.01345 0.019,0.02768 0.1063,0.140892 0.21472,0.279579 0.32407,0.418117 -0.0204,-0.04248 -0.0391,-0.08384 -0.0584,-0.123833 -0.10757,-0.13499 -0.26075,-0.308254 -0.28174,-0.323421 h -0.001 z m 2.88455,6.02408 c 0.10896,0.159436 0.21658,0.318412 0.32554,0.477848 -0.0635,-0.105429 -0.12783,-0.209527 -0.18831,-0.316137 -0.0328,-0.01013 -0.096,-0.12317 -0.13723,-0.161711 z m 0.38831,0.936756 v 0.0015 h -0.001 v 0.0015 h 0.001 v 0.0015 c 0.0444,0.03919 0.0899,0.0789 0.1343,0.118005 -0.0307,-0.03665 -0.0612,-0.07334 -0.0905,-0.11072 l -0.001,-0.0015 v -0.0015 c -0.01,-0.0053 -0.0283,-0.0095 -0.0365,-0.0087 h -0.001 -0.001 z" /><path
         id="path170"
         class="cls-6"
         transform="translate(-39.74,-2.1)"
         d="m 340.79678,47.046044 c 0.0414,0.01102 0.28128,0.04285 0.37079,0.07284 l 0.001,0.0015 v 0.0015 h 0.001 v 0.0015 h -0.001 v 0.0015 c -0.0162,0.003 -0.0795,-4.33e-4 -0.1051,0.0015 -0.55481,0.0062 -1.10928,0.02204 -1.66417,0.01894 -0.59024,-0.0028 -1.0627,0.0031 -1.4379,-0.01602 -2.23208,0.179368 -4.44937,0.40656 -6.66396,0.830405 -0.10793,0.02024 -0.21529,0.04131 -0.32262,0.06265 -0.1817,0.100688 -0.36848,0.126276 -0.60289,0.166081 -0.0567,0.0096 -0.12096,0.01105 -0.18394,0.01602 -0.0375,0.0086 -0.0749,0.0175 -0.1124,0.02622 0.005,0.0017 0.0102,0.003 0.0131,0.0044 -0.0427,0.01458 -0.0858,0.02905 -0.12847,0.04371 -0.004,0.0026 -0.0149,0.0094 -0.019,0.01165 0.008,-0.0024 0.0219,-0.008 0.0336,-0.01311 -0.21041,0.104586 -0.26344,0.108543 -0.59851,0.13403 -0.0145,0.0011 -0.028,0.001 -0.0423,0 -0.0227,0.0026 -0.0471,0.005 -0.0715,0.0073 -1.05975,0.282174 -2.08384,0.62873 -3.06411,1.048932 -0.059,0.04998 -0.11991,0.09377 -0.17955,0.12966 -0.0881,0.05303 -0.18553,0.08787 -0.28174,0.125289 -0.31433,0.244652 -0.70091,0.360082 -1.05106,0.539035 -0.28021,0.137025 -0.55276,0.28541 -0.83646,0.415203 -0.13545,0.08274 -0.26975,0.16694 -0.4029,0.253492 -0.30278,0.366652 -0.55641,0.602372 -0.63793,0.437056 -0.79506,0.570758 -1.54535,1.215616 -2.24371,1.943439 -0.48373,0.731395 -0.39701,0.640712 -1.15032,1.33739 -0.33682,0.436249 -0.65822,0.896205 -0.96346,1.382551 0.2,0.2 0.39998,0.2997 0.59998,0.4997 4.58,-2.3 8.95959,-6.079663 13.73959,-6.679663 7.97,-0.99 16.1407,-0.200411 24.2107,0.199589 a 32.58,32.58 0 0 1 9.57918,2.189647 c 6.68,2.39 9.27006,8.669874 12.76006,14.049874 a 12.74,12.74 0 0 0 1.57074,-0.429771 c -0.16143,-0.409317 -0.32724,-0.8122 -0.49779,-1.20773 -0.004,0.02041 -0.009,0.0342 -0.0131,0.04079 l -0.001,0.0015 v 0.0015 h -0.001 v -0.0015 c -0.0167,-0.02287 -0.0361,-0.109262 -0.0569,-0.23601 -0.90753,-2.074372 -1.94244,-3.956246 -3.10644,-5.645299 -0.23759,-0.281705 -0.426,-0.540748 -0.46421,-0.645385 -0.002,-0.0029 -0.004,-0.0074 -0.006,-0.0102 v -0.0015 -0.0015 -0.0015 -0.0015 c -0.0201,-0.02746 -0.0412,-0.05423 -0.0613,-0.08158 0.0163,0.02633 0.0333,0.05073 0.0496,0.0743 -0.13836,-0.131012 -0.27842,-0.261338 -0.31094,-0.426858 -0.0519,-0.06808 -0.10386,-0.13658 -0.1562,-0.203959 -0.038,-0.03875 -0.0707,-0.07322 -0.0949,-0.100523 -0.004,-0.0045 -0.008,-0.0086 -0.0117,-0.01311 0.0178,0.01673 0.0361,0.03283 0.054,0.04953 -0.009,-0.01198 -0.0184,-0.02302 -0.0277,-0.03496 -0.049,-0.05421 -0.0986,-0.108849 -0.14743,-0.163167 0.0298,0.04062 0.061,0.08077 0.0934,0.119462 -0.11793,-0.112192 -0.23169,-0.228617 -0.33137,-0.356929 -0.0219,-0.02815 -0.0479,-0.06468 -0.0774,-0.107807 -0.0644,-0.05533 -0.12824,-0.112047 -0.19123,-0.168995 -0.0825,-0.07458 -0.46585,-0.486118 -0.55765,-0.584197 -0.22088,-0.26648 0.23004,0.285541 0.48174,0.375868 v 0.0015 h 0.001 0.001 v 0.0015 h 0.001 0.001 c -0.27483,-0.321157 -0.55559,-0.633284 -0.84231,-0.936755 -0.0623,-0.01764 -0.12734,-0.02491 -0.19561,-0.0204 0.13896,0.111518 0.27646,0.225968 0.40728,0.346731 0.0106,0.0098 0.0164,0.01665 0.019,0.0204 v 0.0015 0.0015 c -0.036,-0.01204 -0.3064,-0.19966 -0.41312,-0.265147 -0.0292,-0.03162 -0.0584,-0.06307 -0.0876,-0.0947 -0.0492,0.0094 -0.10045,0.02405 -0.15328,0.04662 -0.57838,-0.62925 -0.30857,-0.319911 -0.64523,-0.770674 0.18023,0.164988 0.3711,0.317804 0.56349,0.469106 -0.39266,-0.425079 -0.7854,-0.849669 -1.17806,-1.274745 0.0606,0.114538 0.10451,0.208982 0.10949,0.225812 -0.003,-0.0041 -0.0114,-0.01373 -0.0204,-0.03059 -0.0454,-0.08448 -0.11025,-0.186288 -0.1854,-0.297197 v -0.0015 -0.0015 c -0.0546,-0.04733 -0.10557,-0.100361 -0.16057,-0.147142 0.13262,0.195963 0.34982,0.5054 0.35911,0.534664 -0.004,-0.0035 -0.0158,-0.01253 -0.0321,-0.03205 -0.16359,-0.195759 -0.50378,-0.395564 -0.48757,-0.626447 -0.16393,-0.106358 -0.2603,-0.200132 -0.32845,-0.329248 -1.33065,-1.06866 -2.76596,-1.982267 -4.30786,-2.740337 -0.0754,0.0019 -0.12549,-0.02875 -0.50363,-0.240381 -0.42414,-0.196335 -0.85648,-0.381633 -1.2963,-0.55506 -0.32389,-0.03895 -0.67855,-0.0929 -1.18243,-0.183563 -0.3261,-0.0587 -0.66895,-0.07119 -0.97369,-0.201046 -0.41179,-0.175474 -1.00109,-0.260661 -1.4992,-0.407918 -0.35944,-0.04806 -0.71839,-0.09388 -1.07587,-0.15734 -0.002,8e-6 -0.002,-6e-6 -0.003,0 -0.19328,5.84e-4 -0.38429,-0.02148 -0.5737,-0.05099 -0.0915,-0.0014 -0.17432,-0.0078 -0.22189,-0.03642 -0.2413,-0.04335 -0.48193,-0.09298 -0.72552,-0.118005 h -0.001 l -0.001,0.0015 c -0.0104,0.0033 -0.0221,0.01199 -0.0321,0.01602 l -0.001,0.0015 c -0.0398,0.0079 -0.0805,0.01542 -0.12117,0.01457 -0.57285,-0.01195 -1.14204,-0.04478 -1.7138,-0.0743 -0.11287,-0.0057 -0.20111,-0.01 -0.26422,-0.01311 h -0.001 c -0.30789,-0.0269 -0.61458,-0.05599 -0.92259,-0.08158 -0.10698,-0.0089 -0.22607,-0.02262 -0.34597,-0.03059 -0.42471,0.03669 -1.02439,0.06921 -1.37367,0.05099 -0.73653,-0.03837 -1.03852,-0.08626 -1.63497,-0.171909 0.003,0.0021 0.006,0.0048 0.009,0.0073 v 0.0029 h 0.001 l 0.001,0.0015 v 0.0015 0.0015 0.0015 0.0015 0.0015 0.0029 0.0015 0.0015 0.0015 c -0.0252,0.0112 -0.13817,-0.0065 -0.1854,-0.0044 -0.15382,0.0068 -0.30733,0.01297 -0.46129,0.01748 -0.44783,0.01313 -0.46619,0.01046 -0.88464,0.01165 -0.6837,-0.01522 -1.36719,-0.01008 -2.05101,-0.0087 -0.22867,1.75e-4 -0.45729,0.0014 -0.6861,0.0015 -0.54938,2.31e-4 -1.09966,-0.02237 -1.63935,-0.107807 -0.50054,0.0091 -1.00494,-0.02561 -1.49921,-0.05536 -0.24938,-0.015 -0.49822,-0.03021 -0.74596,-0.06119 -0.31977,-0.03998 -0.64654,-0.05738 -0.9547,-0.151513 -0.61433,-0.18763 -1.20212,-0.454779 -1.80139,-0.686177 -0.0982,-0.02167 -0.20911,-0.04605 -0.33575,-0.07284 -0.0907,-0.01928 -0.18527,-0.02547 -0.27736,-0.03788 -0.44083,-0.05762 -0.62876,-0.08765 -0.65545,-0.10198 l -0.001,-0.0015 -0.001,-0.0015 v -0.0015 -0.0015 h 0.001 0.001 c 0.05,-0.01471 0.53372,0.01467 0.9766,0.04079 -0.0491,-0.03256 -0.0961,-0.06263 -0.14014,-0.09178 -0.42749,-0.02719 -0.85803,-0.02794 -1.28608,-0.03788 -0.01,-2.22e-4 -0.0165,-2.34e-4 -0.0204,0 z m 1.31528,0.03496 c 0.0607,0.03852 0.10881,0.06768 0.13138,0.08013 0.008,0.0045 0.0151,0.0087 0.0234,0.01311 0.35989,0.02115 0.68779,0.03892 0.72698,0.02622 h 0.001 v -0.0015 -0.0015 -0.0015 l -0.001,-0.0015 c -0.0162,-0.0078 -0.0738,-0.02089 -0.17956,-0.03788 -0.23237,-0.03734 -0.46722,-0.0605 -0.70216,-0.07576 z m 11.09006,1.264547 v 0.0015 c 0.001,3.49e-4 0.004,7.5e-4 0.007,0.0015 0.0188,0.0037 0.0393,0.0034 0.0598,0.0029 -0.0307,-0.0031 -0.0612,-0.0061 -0.0672,-0.0058 z m 6.54572,0.06556 c 0.18944,0.124922 0.43113,0.21032 0.73282,0.250579 0.0168,0.0022 0.0331,0.0039 0.0496,0.0058 0.0195,-0.08319 0.0381,-0.168702 0.0555,-0.256406 -0.22385,-2e-6 -0.44767,0 -0.67151,0 z m 1.71818,0.05827 c -0.009,0.03182 -0.0178,0.06318 -0.0263,0.0947 0.0464,-0.01898 0.0906,-0.04086 0.1343,-0.0641 -0.002,-0.0036 -0.004,-0.0066 -0.006,-0.0102 -0.0335,-0.0068 -0.0687,-0.01373 -0.10219,-0.0204 z m 11.5937,5.812837 h 0.001 v 0.0015 h -0.001 z m 0.0744,0.01894 h 0.001 v 0.0015 0.0015 c 0.004,0.004 0.012,0.01301 0.0233,0.02768 0.18926,0.242732 0.31469,0.406984 0.40145,0.523009 -0.0161,-0.01474 -0.0322,-0.02864 -0.0482,-0.0437 -0.11751,-0.110588 -0.35906,-0.463312 -0.37954,-0.506984 v -0.0015 z" /><path
         id="path171"
         class="cls-6"
         transform="translate(-39.74,-2.1)"
         d="m 318.47068,56.030445 c -0.51357,0.729701 -1.02407,1.463211 -1.53133,2.199846 -0.10454,0.236606 -0.34199,0.627979 -0.50071,0.891593 -0.20265,0.434889 -0.52934,0.797588 -0.79997,1.187334 0.0227,-0.0269 0.12249,-0.152892 0.13577,-0.161711 v -0.0015 h 0.001 v 0.0015 0.0015 l -0.001,0.0015 v 0.0015 l -0.001,0.0015 -0.001,0.0015 c -0.0587,0.105745 -0.12596,0.207312 -0.19416,0.307396 -0.21353,0.42012 -0.50959,0.783865 -0.79705,1.153826 0.0249,-0.03124 0.0471,-0.0566 0.054,-0.06119 v -0.0015 h 0.001 v 0.0015 c -2.1e-4,7.72e-4 -10e-4,0.0028 -0.001,0.0044 -3.3e-4,8.58e-4 -0.001,0.0035 -0.001,0.0044 -0.0237,0.04703 -0.0549,0.08949 -0.0876,0.131116 -0.0591,0.102638 -0.11188,0.210169 -0.19561,0.292827 -0.0863,0.08532 -0.17346,0.17094 -0.25985,0.256406 -0.0897,0.16989 -0.1919,0.341151 -0.33283,0.552147 -0.11102,0.166106 -0.20115,0.350348 -0.34013,0.493872 -0.0988,0.10201 -0.20115,0.201815 -0.30364,0.300112 -0.0276,0.04534 -0.0514,0.08272 -0.0701,0.11072 -0.13566,0.203735 -0.44067,0.658051 -0.6788,0.938213 -0.5847,0.851123 -1.17213,1.698512 -1.7649,2.540748 -0.04,-0.164362 -0.0771,-0.32819 -0.1124,-0.490959 -0.45984,0.46457 -0.86408,0.765185 -1.50505,1.273288 0.19392,0.342018 0.37682,0.682806 0.51823,1.01834 1.4,-0.8 3.19035,-1.200693 3.89035,-2.390693 1.99,-3.19 3.68007,-6.679559 5.48007,-10.059559 a 2.65,2.65 0 0 1 -0.59997,-0.4997 z" /><path
         id="path172"
         class="cls-3"
         transform="translate(-39.74,-2.1)"
         d="m 380.81999,65.820486 c -0.5,0.1 -1.00067,0.299177 -1.50067,0.399177 a 15.2,15.2 0 0 0 1.79117,2.499957 c 0.4809,-0.0498 0.87387,-0.04044 1.19557,0.01748 -0.025,-0.227127 -0.0415,-0.481587 -0.0525,-0.751735 -0.14058,-0.194207 -0.42666,-0.711356 -0.66275,-1.158197 -0.25879,-0.32086 -0.52833,-0.665289 -0.77077,-1.006684 z m 2.50792,3.481875 c 0.002,0.0049 0.003,0.0095 0.004,0.01457 0.0171,0.02364 0.0341,0.04813 0.0496,0.07284 -0.005,-0.0125 -0.01,-0.02537 -0.0146,-0.03788 -0.0132,-0.01664 -0.0262,-0.03289 -0.0394,-0.04953 z m 0.27153,0.658496 c 0.0113,0.05504 0.0213,0.11164 0.0292,0.168995 0.0462,0.08461 0.0899,0.170306 0.1343,0.256406 -0.0544,-0.141793 -0.10922,-0.283593 -0.16349,-0.425401 z m 0.054,0.43997 c 0.0327,0.612715 -0.0748,1.319828 -0.14306,1.9988 a 0.9,0.9 0 0 0 0.0993,0.499699 h 0.89047 c 0.13488,-0.06744 0.22342,-0.17999 0.32845,-0.276801 -0.0269,-0.03883 -0.0534,-0.07767 -0.0803,-0.116548 -0.0429,-0.08721 -0.43085,-0.833489 -0.53721,-1.166938 -0.0445,-0.05191 -0.0868,-0.101567 -0.12554,-0.148599 -0.13845,-0.168116 -0.19648,-0.388801 -0.2832,-0.588568 -0.003,-0.0064 -0.004,-0.01104 -0.006,-0.01457 -0.056,-0.06976 -0.10298,-0.13068 -0.14306,-0.186477 z m 0.15036,0.196674 c 0.0306,0.05663 0.12291,0.240122 0.16204,0.31468 -0.0284,-0.07394 -0.0577,-0.147497 -0.0861,-0.221441 -0.0272,-0.03287 -0.0522,-0.06374 -0.0759,-0.09324 z m 0.55618,0.913446 c 0.016,0.04415 0.0313,0.08673 0.0438,0.125289 0.0164,0.02587 0.0322,0.05253 0.0482,0.07867 0.0762,0.07615 0.14916,0.148705 0.21897,0.218528 -0.005,-0.03019 -0.01,-0.0614 -0.0146,-0.09324 -0.10308,-0.113064 -0.20343,-0.223797 -0.29634,-0.329249 z m 0.29634,0.329249 c 0.1122,0.123067 0.22833,0.248477 0.34305,0.371497 v -0.320508 c -0.10898,-0.08832 -0.26587,-0.227794 -0.36787,-0.330705 0.003,0.09545 0.009,0.172155 0.0161,0.224355 0.003,0.01861 0.006,0.0373 0.009,0.05536 z m 0.0146,0.09324 c 0.0484,0.278447 0.11117,0.488614 0.18685,0.664324 0.0427,-0.03686 0.0885,-0.07103 0.1416,-0.09761 v -0.238923 c -0.10082,-0.100739 -0.21033,-0.209619 -0.32845,-0.327792 z m 0.0482,-0.388979 c 0.0964,0.09042 0.19133,0.182496 0.28028,0.279715 v -0.170451 c -0.0169,-0.0238 -0.0402,-0.06909 -0.054,-0.100523 -0.0683,-0.0067 -0.14317,-0.0095 -0.22627,-0.0087 z m 0.23941,0.0102 c 0.014,0.02159 0.0271,0.04385 0.0409,0.06556 v -0.0058 c -0.0138,-0.01982 -0.0272,-0.03997 -0.0409,-0.05973 z" /><path
         id="path175"
         class="cls-3"
         transform="translate(-39.74,-2.1)"
         d="m 384.91033,72.55988 a 1,1 0 0 0 -0.0584,0.02477 c 0.0425,0.10045 0.0891,0.189357 0.14014,0.273888 -0.0591,-0.08561 -0.11895,-0.170897 -0.17809,-0.256406 a 1,1 0 0 0 -0.39415,0.358385 c -0.1,0.4 -0.1,0.798989 -0.19999,1.198989 0.39,1.49 0.79046,3.09034 1.29046,4.58034 0,0.2 1.09898,-5.22e-4 1.68898,-0.100522 -0.52102,-1.312454 -1.00197,-2.667227 -1.49921,-4.012169 -0.27644,-0.320918 -0.48084,-0.578882 -0.47881,-0.630816 v -0.0015 l 0.001,-0.0015 v -0.0015 -0.0015 l 0.001,-0.0015 0.001,-0.0015 h 0.001 l 0.001,-0.0015 h 0.001 c 0.0292,-7.84e-4 0.12753,0.06782 0.31677,0.228725 -0.0447,-0.119682 -0.0892,-0.240462 -0.1343,-0.359842 -0.0361,-0.06458 -0.0724,-0.128811 -0.10802,-0.193761 -0.0384,-0.06992 -0.0551,-0.150984 -0.0569,-0.238924 -0.11083,-0.289026 -0.22286,-0.576553 -0.33722,-0.862456 z" /><path
         id="path176"
         class="cls-6"
         transform="translate(-39.74,-2.1)"
         d="m 381.71046,68.756041 c -0.2305,-0.01196 -0.4901,-0.0049 -0.78099,0.02331 0.8,1.22 1.59115,2.490006 2.39115,3.680006 0.0954,-0.901239 0.25882,-1.847094 0.0686,-2.55823 -0.0367,-0.09393 -0.0775,-0.204295 -0.13139,-0.343817 -0.0211,-0.04068 -0.0437,-0.07983 -0.0686,-0.118005 0.0136,0.03517 0.0255,0.06643 0.035,0.09178 -0.0202,-0.04501 -0.0392,-0.08749 -0.0569,-0.125289 -0.005,-0.0078 -0.0119,-0.01419 -0.0175,-0.02185 -0.0332,0.0043 -0.0623,-0.01228 -0.0905,-0.04079 -0.40616,0.762978 -0.6321,0.361511 -0.74011,-0.49533 -0.17661,-0.04784 -0.37823,-0.07982 -0.60874,-0.09178 z" /><path
         id="path177"
         class="cls-6"
         d="m 384.42,73 c -0.1,0.4 -0.1,0.8 -0.2,1.2 a 10.54,10.54 0 0 0 -0.7,-1.1 2.48,2.48 0 0 1 0.9,-0.1 z"
         transform="translate(-39.74,-2.1)" /><path
         id="path182"
         class="cls-3"
         d="M 393,77.45 Z"
         transform="translate(-39.74,-2.1)" /><path
         id="path183"
         class="cls-21"
         transform="translate(-39.74,-2.1)"
         d="m 365.65418,48.41257 c 0.0317,0.0153 0.0635,0.03099 0.0949,0.04662 -0.0178,-0.01549 -0.0361,-0.03126 -0.054,-0.04662 -0.0137,-2e-6 -0.0272,3e-6 -0.0409,0 z m -0.15474,0.01165 c 0.12239,0.120234 0.25043,0.234247 0.381,0.343817 -0.11312,-0.03392 -0.23361,-0.08751 -0.36349,-0.161711 0.22403,0.254259 0.50715,0.466565 0.86274,0.627903 0.096,0.04353 0.18808,0.07761 0.2759,0.10198 -0.008,-0.0086 -0.0166,-0.01762 -0.0248,-0.02622 -0.25783,-0.160992 -0.50348,-0.340388 -0.7372,-0.536121 0.0227,0.0065 0.0448,0.01265 0.0672,0.01748 -0.0792,-0.06618 -0.17707,-0.149846 -0.27882,-0.237466 -0.0511,-0.03713 -0.1158,-0.08247 -0.18247,-0.12966 z m 0.12846,0.0073 c 0.004,0.0031 0.009,0.0071 0.0131,0.0102 -0.003,-0.0032 -0.007,-0.007 -0.0102,-0.0102 z m 0.0131,0.0102 h -0.004 c 0.006,0.0046 0.0127,0.01 0.019,0.01457 -0.005,-0.0046 -0.01,-0.0098 -0.0146,-0.01457 z m 0.0146,0.01457 c 0.0186,0.01782 0.0365,0.03446 0.054,0.05099 v 0.0015 l 0.001,0.0015 0.001,0.0015 v 0.0015 0.0015 h 0.001 0.001 v 0.0015 0.0015 h 0.001 l 0.001,0.0015 c 0.002,0.0012 0.005,0.0032 0.007,0.0044 0.002,0.0016 0.003,0.0014 0.004,0.0029 0.0248,0.01324 0.049,0.02554 0.073,0.03788 -0.0496,-0.0365 -0.098,-0.07156 -0.14744,-0.107807 z m 0.0745,0.06993 c 0.12726,0.119761 0.22122,0.211942 0.28612,0.275344 0.027,0.0043 0.0514,0.0083 0.0774,0.0102 -0.0338,-0.03255 -0.0679,-0.0656 -0.10072,-0.09907 -0.0881,-0.0612 -0.17524,-0.12421 -0.26277,-0.186476 z m 0.0847,0.03788 c 0.0495,0.03645 0.0997,0.07241 0.1489,0.109263 -0.0213,-0.0223 -0.0434,-0.04431 -0.0642,-0.06702 -0.0269,-0.01305 -0.0553,-0.02719 -0.0847,-0.04225 z m 0.1489,0.109263 c 0.0123,0.01284 0.0241,0.0266 0.0365,0.03934 0.0351,0.02444 0.0709,0.04782 0.10656,0.07139 -0.004,-0.0042 -0.009,-0.0089 -0.0131,-0.01311 -0.043,-0.03295 -0.0865,-0.06509 -0.12992,-0.09761 z m 1.13572,1.232497 c 0.0405,0.01845 0.0808,0.03671 0.12117,0.05536 -0.0145,-0.01666 -0.0293,-0.0329 -0.0438,-0.04953 -0.0264,-0.0019 -0.0518,-0.0039 -0.0774,-0.0058 z m 4.19837,0.308852 v 0.0015 0.0015 0.0015 c -0.0237,0.06079 0.0284,0.563045 0.0759,0.750278 0.0253,0.09979 0.0503,0.199866 0.0759,0.300111 0.10355,0.08715 0.19448,0.164951 0.27298,0.233097 -0.0988,-0.346174 -0.22668,-0.756848 -0.3956,-1.245608 -0.007,-0.02107 -0.0126,-0.03347 -0.0175,-0.03933 v -0.0015 h -0.001 v -0.0015 h -0.001 z m -2.8539,0.313223 c 0.004,0.0048 0.0653,0.04994 0.1927,0.142772 -0.003,-6.32e-4 -0.007,-7.08e-4 -0.0102,-0.0015 0.0869,0.04751 0.17362,0.09567 0.25984,0.144228 -0.0796,-0.05122 -0.14953,-0.09706 -0.20875,-0.135487 -0.0132,-0.0025 -0.0267,-0.005 -0.0394,-0.0073 -0.0137,-0.01535 -0.026,-0.03031 -0.038,-0.04371 -0.10534,-0.06852 -0.1598,-0.103903 -0.1562,-0.09907 z m 0.41605,0.186477 c 0.10395,0.06634 0.23022,0.144865 0.37954,0.234553 0.0267,0.0034 0.0544,0.0067 0.0832,0.0102 -0.0493,-0.05498 -0.10379,-0.1164 -0.16204,-0.180649 -0.10977,-0.02497 -0.21018,-0.04546 -0.30071,-0.0641 z m 0.71967,0.164624 c 0.0396,0.04038 0.0789,0.08022 0.11825,0.120919 0.19361,0.01876 0.35817,0.03098 0.3883,0.02185 l 0.001,-0.0015 0.001,-0.0015 v -0.0015 -0.0015 h -0.001 v -0.0015 c -0.007,-0.0048 -0.0274,-0.01182 -0.0599,-0.0204 -0.16199,-0.04254 -0.3109,-0.08109 -0.44816,-0.115092 z m 1.06128,0.26369 c 0.0355,0.05691 0.29076,0.452446 0.52844,0.863913 0.0916,0.09494 0.17681,0.197648 0.2613,0.301568 -0.64099,-0.940926 -0.8252,-1.222391 -0.78974,-1.165481 z m 0.82624,0.206873 c 0.003,0.01051 0.006,0.02155 0.009,0.03205 0.0242,0.05054 0.0483,0.0991 0.0715,0.145685 0.0118,0.01248 0.0228,0.02498 0.035,0.03788 0.0256,0.0036 0.0598,0.01176 0.10219,0.02331 -0.0602,-0.06838 -0.13272,-0.148316 -0.21751,-0.238924 z m 0.21751,0.238924 c 0.0325,0.03684 0.0615,0.07088 0.0876,0.101979 -0.007,-0.02719 -0.0155,-0.05497 -0.0234,-0.08304 -0.0237,-0.0073 -0.0447,-0.01361 -0.0642,-0.01894 z m -0.10219,-0.02331 c -0.006,-8.99e-4 -0.012,-8.19e-4 -0.0175,-0.0015 0.004,0.0076 0.008,0.01441 0.0117,0.02185 0.0243,0.03013 0.0501,0.06226 0.0759,0.0947 0.035,0.02528 0.0708,0.04969 0.10803,0.07138 -0.0636,-0.06601 -0.12355,-0.128895 -0.1781,-0.186477 z m 0.0701,0.115092 c -0.0148,-0.0107 -0.0306,-0.02232 -0.0453,-0.03351 0.005,0.01048 0.0107,0.02188 0.0161,0.03205 0.0216,0.01596 0.0444,0.03099 0.0657,0.04662 -0.0122,-0.01541 -0.0245,-0.03025 -0.0365,-0.04516 z m -0.0292,-0.0015 c -0.0153,-0.01126 -0.03,-0.02362 -0.0453,-0.03496 0.0248,0.03011 0.0506,0.06024 0.0759,0.09032 -0.01,-0.01823 -0.0209,-0.03599 -0.0306,-0.05536 z m -0.0161,-0.03205 c -0.0102,-0.01974 -0.0201,-0.04041 -0.0307,-0.06119 -0.006,-0.0078 -0.0128,-0.01425 -0.019,-0.02185 -0.0137,-7.38e-4 -0.0256,-2.49e-4 -0.0336,0.0015 0.002,0.0064 0.004,0.0125 0.006,0.01894 0.0254,0.02132 0.0512,0.04253 0.0774,0.06264 z m -1.27294,-0.09324 c 0.017,0.0087 0.0324,0.01888 0.0496,0.02768 0.0214,0.01099 0.0844,0.02402 0.092,0.02331 v -0.0015 -0.0015 h -0.001 c -0.0467,-0.01614 -0.0933,-0.03234 -0.14014,-0.04808 z m 1.21893,0.115092 c 0.0611,0.214631 0.12931,0.426375 0.21167,0.632273 0.0252,0.0079 0.0617,0.02518 0.10948,0.05536 0.0258,0.0163 0.0519,0.03341 0.0774,0.04953 -0.0168,-0.07346 -0.035,-0.15185 -0.0555,-0.236009 -0.0216,-0.02834 -0.0407,-0.05357 -0.0569,-0.07576 -0.10045,-0.13724 -0.19323,-0.279646 -0.2832,-0.423943 -7.1e-4,-4.15e-4 -0.002,-8.71e-4 -0.003,-0.0015 z m 0.13868,0.05682 c 0.0433,0.05449 0.0885,0.112801 0.13576,0.173365 -0.008,-0.02949 -0.0152,-0.05967 -0.0234,-0.09032 -0.0362,-0.02651 -0.0741,-0.05499 -0.1124,-0.08304 z m -0.035,0.0087 c 0.048,0.09075 0.0901,0.166719 0.12263,0.222898 0.028,0.0483 0.0615,0.09408 0.0978,0.136944 -0.0117,-0.04698 -0.0235,-0.09531 -0.0365,-0.145685 -0.0533,-0.06064 -0.11884,-0.136846 -0.18394,-0.214157 z m 0.10511,0.01894 c 0.008,0.0075 0.0146,0.01407 0.0219,0.02185 l 0.001,0.0015 c 0.003,0.0024 0.007,0.0049 0.0117,0.0073 -10e-4,-0.0044 -0.002,-0.0087 -0.003,-0.01311 -0.0104,-0.0053 -0.0217,-0.01139 -0.0321,-0.01748 z m -1.29922,0.02768 c 0.006,0.0061 0.0125,0.01277 0.019,0.01894 0.13309,0.08992 0.26585,0.181192 0.39706,0.273888 -0.22994,-0.171978 -0.36045,-0.261497 -0.41604,-0.292827 z m 0.85836,0.613335 c 0.0331,0.02457 0.0663,0.04809 0.0993,0.07284 0.0257,0.01357 0.0507,0.02705 0.0759,0.03933 -0.0398,-0.02763 -0.0788,-0.05499 -0.11825,-0.08304 -0.0194,-0.01002 -0.0382,-0.01931 -0.0569,-0.02914 z m 0.32553,0.26369 c 0.018,0.01386 0.0346,0.02979 0.0526,0.04371 -0.003,-0.0051 -0.007,-0.01094 -0.0102,-0.01602 -0.009,-0.0063 -0.032,-0.0207 -0.0423,-0.02768 z m 0.33722,0.10635 c 0.008,0.01484 0.0168,0.02918 0.0248,0.04371 0.006,0.0045 0.0116,0.01004 0.0175,0.01457 -0.0143,-0.01956 -0.0287,-0.03943 -0.0423,-0.05827 z m -0.11825,0.03059 c 0.066,0.06053 0.13355,0.117919 0.20875,0.166081 -0.002,-0.0066 -0.003,-0.01364 -0.004,-0.0204 -0.0574,-0.0404 -0.10994,-0.07902 -0.16057,-0.115091 0.0532,0.03719 0.10761,0.07533 0.16057,0.112177 -0.003,-0.01098 -0.006,-0.02214 -0.009,-0.03351 0.009,0.01591 0.0187,0.0311 0.0277,0.04662 0.0222,0.01543 0.0438,0.0314 0.0657,0.04662 -0.0184,-0.02475 -0.0362,-0.05024 -0.054,-0.0743 -0.0137,-0.0072 -0.027,-0.01386 -0.0394,-0.0204 -0.0756,-0.03972 -0.13254,-0.07048 -0.1781,-0.09615 v -0.0015 c -0.004,-0.0024 -0.007,-0.0049 -0.0117,-0.0073 -0.002,-0.0011 -0.004,-0.0018 -0.006,-0.0029 z m 0.19562,0.107807 c -10e-4,-0.0049 -0.002,-0.0096 -0.003,-0.01457 -0.003,-0.002 -0.006,-0.0039 -0.009,-0.0058 0.004,0.0067 0.008,0.01382 0.0117,0.0204 z m 0.0306,0.0539 c 0.005,0.0078 0.0103,0.01556 0.0146,0.02331 0.0205,0.01232 0.0414,0.02524 0.0628,0.03642 -0.003,-0.0036 -0.006,-0.008 -0.009,-0.01165 -0.0232,-0.01624 -0.0464,-0.03249 -0.0686,-0.04808 z m 3.07725,2.287257 c -0.002,0.0039 -0.005,0.0079 -0.007,0.01165 0.0699,0.05809 0.1577,0.131518 0.2686,0.227268 0.0215,0.01863 0.0774,0.0569 0.0905,0.0641 -0.11574,-0.102373 -0.23382,-0.202865 -0.35181,-0.303025 z m -0.13722,0.109264 c -0.0641,0.02846 -0.12598,0.04125 -0.14452,0.0539 v 0.0015 0.0015 0.0015 h -0.001 v 0.0015 0.0015 0.0015 l 0.001,0.0015 v 0.0015 0.0015 0.0015 h 0.001 c 0.0223,0.01441 0.0985,0.03457 0.26276,0.0743 -0.0391,-0.04698 -0.0789,-0.09438 -0.11824,-0.142771 z m 1.11966,0.174822 c 0.0532,0.238649 0.10933,0.484666 0.15766,0.70803 0.0195,0.02608 0.0481,0.07431 0.0876,0.150055 0.0914,0.07623 0.18337,0.153315 0.27444,0.230183 -0.058,-0.277292 -0.11618,-0.555315 -0.18394,-0.828949 -0.0338,-0.05702 -0.0673,-0.114846 -0.10218,-0.173365 -0.0769,-0.02762 -0.15637,-0.05622 -0.23357,-0.08595 z m -1.1328,0.221441 c -0.006,-0.0095 0.0197,0.03528 0.089,0.155883 l 0.001,0.0015 0.001,0.0015 c 0.001,6.62e-4 0.002,6.57e-4 0.003,0.0015 -0.0525,-0.08812 -0.0892,-0.151124 -0.0949,-0.160254 z m 1.04083,0.802725 c 0.0175,0.05435 0.0359,0.107686 0.054,0.161711 0.0436,0.01002 0.0875,0.01973 0.13138,0.02914 -0.008,-0.01085 -0.0169,-0.02111 -0.0248,-0.03205 v 0.0015 0.0015 0.0015 c -0.003,-0.0019 -0.0117,-0.0078 -0.0204,-0.01603 -0.0496,-0.04668 -0.0962,-0.09529 -0.14015,-0.147142 z m 0.23503,0.453081 c 0.0795,0.05474 0.15916,0.109227 0.23795,0.164624 -0.0215,-0.04312 -0.0427,-0.08363 -0.0613,-0.122375 -0.0637,-0.01557 -0.12258,-0.03005 -0.17664,-0.04225 z m 0.0642,0.371497 c 0.023,0.05617 0.0469,0.112597 0.0701,0.166081 0.0124,0.01666 0.0241,0.03284 0.0365,0.04953 0.0301,0.02337 0.0753,0.08878 0.127,0.171908 0.0319,0.04382 0.0631,0.08848 0.0949,0.132574 0.004,0.005 0.008,0.0096 0.0117,0.01457 h 0.001 v 0.0015 h -0.001 c 0.0641,0.08908 0.12791,0.179307 0.19123,0.269518 l 0.001,0.0015 c 0.0632,0.04643 0.14978,0.119114 0.26422,0.222898 -0.25358,-0.494601 -0.16336,-0.310412 0.038,0.03496 -0.0133,-0.01221 -0.0253,-0.02353 -0.038,-0.03496 0.01,0.01963 0.021,0.04228 0.0321,0.0641 0.012,0.0078 0.0258,0.01556 0.038,0.02331 -0.01,-0.01708 -0.021,-0.03313 -0.0307,-0.04953 0.0326,0.03001 0.0683,0.0614 0.1051,0.09615 -0.0251,-0.01541 -0.0497,-0.03076 -0.0744,-0.04662 0.0169,0.02881 0.0345,0.05859 0.0525,0.08887 0.0942,0.07223 0.19704,0.154701 0.29926,0.23601 v -0.0015 -0.0015 -0.0015 h -0.001 v -0.0015 -0.0015 -0.0015 -0.0015 -0.0015 c -0.10175,-0.100354 -0.19368,-0.187471 -0.27444,-0.26369 0.075,0.04587 0.1521,0.0892 0.22773,0.13403 -0.12717,-0.130895 -0.25333,-0.262013 -0.37955,-0.39335 -0.021,-0.0094 -0.17592,-0.276244 -0.34305,-0.585654 -0.15469,-0.112722 -0.30867,-0.22478 -0.44816,-0.321964 z m 0.82917,1.094095 c -0.036,-0.02386 -0.072,-0.05028 -0.10657,-0.07576 0.0362,0.04026 0.0718,0.08066 0.10803,0.120919 0.0118,0.0088 0.0242,0.01843 0.0365,0.02768 -0.0129,-0.02526 -0.026,-0.05003 -0.038,-0.07284 z m -0.85544,-1.056217 c 0.003,0.0042 0.006,0.0089 0.009,0.01311 0.002,0.001 0.006,0.0022 0.007,0.0029 7.1e-4,3.04e-4 0.002,0.0012 0.003,0.0015 v -0.0015 c -0.001,-0.0015 -0.005,-0.0053 -0.007,-0.0073 -0.003,-0.003 -0.007,-0.0057 -0.0102,-0.0087 z m 0.89485,1.130517 c 0.005,0.0093 0.008,0.01801 0.0131,0.02768 v 0.0015 h 0.001 v 0.0015 0.0015 c 0.0235,0.04597 0.0485,0.09627 0.0759,0.150055 0.0307,0.02526 0.0625,0.05062 0.0934,0.07576 -0.0464,-0.07428 -0.0919,-0.148884 -0.13431,-0.219984 -0.017,-0.01291 -0.0335,-0.02558 -0.0496,-0.03788 z m 0.75326,0.06556 v 0.0015 0.0015 c -0.003,0.03053 0.0694,0.276433 0.15181,0.546319 0.003,0.0036 0.006,0.0065 0.009,0.0102 0.0286,0.03894 0.0423,0.06341 0.0438,0.07576 v 0.0015 0.0015 0.0015 0.0015 0.0015 0.0015 l -0.001,0.0015 h -0.001 c 0.0211,0.02274 0.0417,0.04575 0.0628,0.06847 -0.003,-0.0208 -0.004,-0.04122 -0.006,-0.05973 -0.0605,-0.198819 -0.12769,-0.394619 -0.21167,-0.584197 -0.0163,-0.03684 -0.0261,-0.05914 -0.0321,-0.06702 v -0.0015 -0.0015 h -0.001 z m 0.0263,0.173365 c -0.0474,-0.140392 0.0236,0.100533 0.0964,0.336533 0.008,0.0092 0.0145,0.01816 0.0219,0.02768 -0.0382,-0.121976 -0.0775,-0.243127 -0.11824,-0.364213 z m -0.53866,0.192305 c 0.0164,0.02597 0.0336,0.05269 0.0496,0.07867 0.0173,0.01323 0.035,0.02746 0.054,0.04225 -0.0354,-0.04096 -0.0707,-0.08223 -0.10364,-0.120918 z m 0.10364,0.120918 c 0.0374,0.04315 0.0756,0.08633 0.11387,0.12966 -0.0505,-0.04844 -0.10131,-0.09724 -0.15182,-0.145685 0.0472,0.07555 0.0954,0.152053 0.14306,0.227269 0.17119,0.173171 0.3379,0.322814 0.47151,0.412289 -0.009,-0.01924 -0.0183,-0.03906 -0.0277,-0.05827 -0.0103,-0.0094 -0.0206,-0.01848 -0.0307,-0.02768 0.0209,0.02864 0.0321,0.04779 0.035,0.05536 -0.0187,-0.0074 -0.15047,-0.146845 -0.29049,-0.301568 v -0.0015 l -0.001,-0.0015 -0.001,-0.0015 v -0.0015 -0.0015 -0.0015 c -0.0468,-0.05175 -0.0818,-0.08733 -0.12993,-0.141315 0.012,0.01164 0.0245,0.02351 0.0365,0.03496 -0.0291,-0.03679 -0.0597,-0.07801 -0.0905,-0.120918 -0.025,-0.01966 -0.0487,-0.0376 -0.0715,-0.05536 z m 0.54889,0.565259 c 0.0418,0.03801 0.0848,0.07809 0.12992,0.118005 0.0495,0.02334 0.0914,0.03309 0.12262,0.02622 -0.01,-0.01281 -0.0197,-0.02574 -0.0292,-0.03788 -0.009,-0.0091 -0.0197,-0.01852 -0.0292,-0.02768 0.006,0.02218 0.0124,0.04386 0.0175,0.06264 -0.007,-0.02144 -0.0138,-0.0441 -0.0204,-0.06556 -0.0431,-0.04173 -0.0863,-0.08455 -0.13138,-0.128203 -0.0254,-0.02458 -0.0478,-0.05188 -0.0671,-0.08158 -0.0324,-0.02595 -0.0651,-0.05242 -0.0978,-0.07867 0.0346,0.07101 0.0705,0.141694 0.10511,0.212701 z m -0.44378,-0.354015 c -0.0329,-0.03328 -0.0662,-0.06723 -0.0993,-0.10198 1.02829,1.602878 1.94932,3.367519 2.76339,5.294198 -0.0245,-0.139698 -0.0513,-0.341155 -0.0759,-0.566715 -0.0588,-0.112294 -0.11754,-0.22452 -0.17079,-0.339447 -0.0854,-0.184337 -0.16544,-0.371686 -0.24671,-0.557974 -0.0876,-0.156435 -0.16257,-0.303628 -0.23064,-0.467649 -0.0265,-0.04457 -0.0522,-0.08932 -0.0788,-0.13403 0.006,0.01356 0.0131,0.0306 0.0219,0.05099 -0.0578,-0.124442 -0.12761,-0.268979 -0.18685,-0.394807 -0.0118,-0.0181 -0.0258,-0.03743 -0.0394,-0.05827 -0.42812,-0.615342 -0.60393,-1.036814 -0.72844,-1.500557 -0.008,-0.0076 -0.0155,-0.01568 -0.0234,-0.02331 -0.0342,-0.03332 -0.0641,-0.06937 -0.092,-0.107807 -0.31678,-0.332474 -0.56994,-0.708576 -0.8131,-1.092638 z m -0.14306,-0.227269 c -0.006,-0.009 -0.0104,-0.01719 -0.0161,-0.02622 -0.0192,-0.01472 -0.0373,-0.02831 -0.054,-0.04079 0.0236,0.02266 0.0464,0.04436 0.0701,0.06701 z m 0.24378,-0.104893 c 0.004,0.004 0.009,0.0077 0.0131,0.01165 v -0.0015 c -0.004,-0.0033 -0.009,-0.0069 -0.0131,-0.0102 z m 0.44816,0.483674 c 8.6e-4,0.0029 0.002,0.0058 0.003,0.0087 0.0159,0.01645 0.0319,0.03419 0.0482,0.05099 -10e-4,-0.0061 -0.002,-0.01277 -0.003,-0.01894 0.0128,0.01416 0.0267,0.02809 0.0394,0.04225 -10e-4,-0.005 -0.003,-0.0096 -0.004,-0.01457 -0.0119,-0.0099 -0.0246,-0.02075 -0.0365,-0.03059 -0.002,-0.0016 -0.004,-0.0028 -0.006,-0.0044 -0.0134,-0.01105 -0.026,-0.02247 -0.0394,-0.03351 z m 0.15474,0.12966 c 7.6e-4,0.01058 0,0.02067 0,0.03059 0.005,0.0051 0.008,0.01093 0.0131,0.01603 -0.003,-0.01405 -0.007,-0.02778 -0.0102,-0.04225 v -0.0015 -0.0015 z m 0.8423,1.893907 c 0.003,0.01231 0.004,0.02412 0.007,0.03642 0.0119,0.0074 0.0255,0.01608 0.0394,0.02477 -0.0112,-0.01876 -0.0236,-0.03885 -0.035,-0.05827 -0.004,-9.15e-4 -0.008,-0.0019 -0.0117,-0.0029 z m 0.95471,0.383152 c -0.005,0.04937 -0.0116,0.108127 -0.0161,0.167538 0.033,0.02328 0.0674,0.0461 0.10073,0.06847 -0.007,-0.06007 -0.0142,-0.1207 -0.0219,-0.18065 -0.021,-0.01856 -0.0416,-0.03696 -0.0628,-0.05536 z m -0.0204,0.228725 c -8.8e-4,0.0132 0,0.02631 0,0.03934 0.0385,0.02661 0.0772,0.05443 0.11824,0.08304 -0.001,-0.01075 -0.002,-0.02131 -0.003,-0.03205 -0.0376,-0.03011 -0.0759,-0.06048 -0.11386,-0.09032 z m 0.27006,2.399434 c -0.005,0.09149 -0.0122,0.14956 -0.0204,0.179193 0.1095,0.262492 0.21702,0.527022 0.32262,0.795441 0.0916,0.11217 0.18835,0.228942 0.28612,0.346731 -0.0493,-0.07646 -0.0962,-0.154759 -0.14014,-0.234554 -0.007,-0.01222 -0.0132,-0.02411 -0.0204,-0.03642 v -0.0015 c -0.16448,-0.279425 -0.32839,-0.580193 -0.35035,-0.724055 -0.0103,-0.0674 -0.0203,-0.134925 -0.0292,-0.202502 -0.0158,-0.04097 -0.0316,-0.08175 -0.0482,-0.122376 z" /><path
         id="path184"
         class="cls-23"
         transform="translate(-39.74,-2.1)"
         d="m 334.58244,46.738648 v 0.0015 c 0.002,-4.55e-4 0.004,-8.71e-4 0.006,-0.0015 z m -0.003,0.0015 v 0.0015 h 0.001 v -0.0015 z m -0.004,0.0015 c -0.0139,0.0038 -0.0272,0.0084 -0.0423,0.01311 5.4e-4,0.02207 0.001,0.04485 0.001,0.06702 v 0.0015 0.0015 0.0015 0.0015 0.0015 0.0015 c 0.0104,0.0041 0.0292,0.0037 0.0394,-0.0015 v -0.0015 l 0.001,-0.0015 v -0.0015 -0.0015 -0.0015 -0.0015 -0.0015 c -1.6e-4,-0.02547 0,-0.05174 0,-0.07721 z m 2.66412,0.275345 c -0.55372,0.0839 -1.10715,0.169045 -1.66124,0.252035 -1.50075,0.224774 -3.00086,0.456419 -4.50055,0.687634 -0.21528,0.156959 -0.42655,0.184342 -0.70508,0.231639 -0.0949,0.01615 -0.21193,0.0082 -0.30656,0.03496 v 0.0015 h -0.001 v 0.0015 h 0.001 c 0.005,0.0025 0.0181,0.0063 0.0234,0.0087 -0.0427,0.01458 -0.0858,0.02905 -0.12847,0.04371 -0.004,0.0026 -0.0149,0.0094 -0.019,0.01165 0.008,-0.0024 0.0219,-0.008 0.0336,-0.01311 -0.0403,0.02003 -0.0763,0.03759 -0.10802,0.05099 0.41575,-0.09791 0.83596,-0.186055 1.26126,-0.266604 2.57742,-0.493284 5.19715,-0.720954 7.80698,-0.91636 -0.79782,-7.76e-4 -1.33758,-0.0035 -1.69044,-0.126746 z m -7.63765,1.375267 c -0.0591,0.0063 -0.1306,0.01177 -0.2248,0.01894 -0.0145,0.0011 -0.028,0.001 -0.0423,0 -0.0473,0.0054 -0.10166,0.01 -0.1489,0.01457 -0.1737,0.05692 -0.35161,0.09448 -0.53282,0.09761 -0.006,0.0012 -0.0127,0.003 -0.019,0.0044 0.0979,-0.0093 -0.0559,0.0092 -0.19561,0.02185 -0.0261,0.0582 -0.12676,0.03033 -0.18832,0.05099 -0.0607,0.02038 -0.075,0.03265 -0.11824,0.06264 -0.24723,0.123271 -0.52089,0.154766 -0.78683,0.2127 -0.0206,0.01313 -0.0411,0.02639 -0.0628,0.03788 -0.0876,0.04657 -0.18791,0.06379 -0.28028,0.100523 h -0.001 v 0.0015 0.0015 h 0.001 v 0.0015 l 0.001,0.0015 v 0.0015 0.0015 0.0015 c -0.0138,0.0067 -0.25345,0.106682 -0.2978,0.125289 -0.0913,0.05003 -0.191,0.07623 -0.29196,0.09761 -0.0866,0.108106 -0.19601,0.211499 -0.30655,0.29137 1.11333,-0.471294 2.28186,-0.848095 3.49474,-1.146542 z m -2.2802,0.489502 c -0.0209,0.0047 -0.042,0.0094 -0.0628,0.01457 h -0.001 v 0.0015 0.0015 l 0.001,0.0015 v 0.0015 h 0.001 v 0.0015 h 0.001 c 0.0206,-0.0058 0.0399,-0.01384 0.0599,-0.02185 z m -1.56052,0.831862 c -0.008,0.003 -0.0156,0.0057 -0.0233,0.0087 -0.004,0.0032 -0.009,0.0055 -0.0131,0.0087 0.0123,-0.0055 0.0241,-0.01196 0.0365,-0.01748 z m -1.91671,0.965893 c -0.0129,0.0059 -0.0265,0.01167 -0.0394,0.01748 -0.083,0.05596 -0.17438,0.09601 -0.26714,0.132573 -0.0197,0.02468 -0.039,0.04909 -0.0584,0.07284 0.12055,-0.07576 0.24258,-0.150149 0.36495,-0.222898 z m -1.06127,0.581283 c -0.0465,0.03057 -0.0939,0.06066 -0.14014,0.09032 -0.002,0.0012 -0.003,0.0022 -0.004,0.0029 -0.0428,0.03038 -0.087,0.06119 -0.12992,0.09178 -0.0669,0.04781 -0.16346,0.126143 -0.23211,0.164625 -0.0864,0.04849 -0.17929,0.08656 -0.26714,0.132573 -0.0483,0.02526 0.0983,-0.0477 0.14744,-0.07139 -0.16839,0.141447 -0.35481,0.258266 -0.52261,0.400635 -0.0633,0.04513 -0.10673,0.0771 -0.13722,0.09906 -0.18325,0.260101 -0.30978,0.431387 -0.4248,0.562345 0.54833,-0.506197 1.12512,-0.967298 1.72694,-1.386922 -0.008,-0.02297 -0.0131,-0.0513 -0.0161,-0.08595 z m -1.9824,1.726369 c -0.0142,0.0111 -0.0286,0.02399 -0.0438,0.03496 -0.007,0.0097 -0.0126,0.0196 -0.019,0.02914 0.0213,-0.02069 0.0418,-0.04349 0.0628,-0.0641 z m -0.44232,0.297198 c -0.19056,0.119922 -0.43573,0.27449 -0.77223,0.4997 h -0.001 v 0.0015 l -0.001,0.0015 h -0.001 v 0.0015 l -0.001,0.0015 v 0.0015 c 0.0136,-0.0035 0.12401,-0.06194 0.1635,-0.08741 0.2087,-0.135001 0.40925,-0.279669 0.61457,-0.419573 z m -1.30214,1.694318 c -0.0194,0.01661 -0.0395,0.03253 -0.0599,0.04808 -0.27144,0.334236 -0.55515,0.658309 -0.8058,1.008141 -0.19933,0.278154 0.41528,-0.547172 0.66274,-0.783786 0.005,-0.0043 0.008,-0.0072 0.0117,-0.0102 0.063,-0.08816 0.12708,-0.175952 0.19123,-0.262233 z m -0.21896,0.164624 c -0.0115,0.0087 -0.0223,0.01728 -0.0336,0.02622 -0.0331,0.02613 -0.0738,0.04679 -0.0964,0.08158 l -0.001,0.0015 v 0.0015 0.0015 0.0015 0.0015 h 0.001 c 0.0153,-0.0088 0.0671,-0.05445 0.0861,-0.07284 0.0149,-0.01367 0.0291,-0.02829 0.0438,-0.04225 z m -0.1854,0.403548 c -0.0504,0.06605 -0.0977,0.127534 -0.127,0.168995 -0.0568,0.07882 -0.11147,0.159159 -0.1708,0.23601 -0.23912,0.309912 -0.48447,0.633873 -0.73865,0.938212 -0.066,0.101265 -0.1356,0.204177 -0.20729,0.313223 -0.0974,0.210437 -0.20797,0.411026 -0.32554,0.608964 -0.004,0.01234 -0.007,0.02409 -0.0102,0.03642 0.39759,-0.575158 0.79684,-1.148398 1.1985,-1.719085 0.12438,-0.198856 0.25117,-0.392416 0.381,-0.58274 z m -1.21455,0.990659 v 0.0015 c -0.003,0.0057 -0.009,0.02109 -0.0175,0.04516 -0.0768,0.225954 -0.13581,0.457348 -0.19415,0.689091 0.025,-0.0451 0.0489,-0.08928 0.0745,-0.134031 0.061,-0.241778 0.14299,-0.573257 0.14014,-0.600222 h -0.001 v -0.0015 z m -0.18685,0.796897 c -0.0191,0.02144 -0.0382,0.04303 -0.0569,0.0641 -0.007,0.02883 -0.0145,0.05715 -0.0219,0.08595 0.0192,-0.02764 0.0378,-0.05538 0.0569,-0.08304 0.008,-0.02331 0.0158,-0.04553 0.0219,-0.06702 z m -0.089,0.237467 c -0.006,0.0085 -0.0125,0.01732 -0.019,0.02622 -0.003,0.01282 -0.007,0.02508 -0.0102,0.03788 0.0101,-0.02172 0.0198,-0.0428 0.0292,-0.0641 z m -2.26706,3.397377 c -0.0353,0.07234 -0.0685,0.140382 -0.0993,0.205416 0.005,-0.007 0.01,-0.01339 0.0146,-0.0204 0.0287,-0.06147 0.0571,-0.123242 0.0847,-0.18502 z m -2.08021,3.084154 c -0.005,0.0043 -0.01,0.0088 -0.0146,0.01311 -0.007,0.01438 -0.0133,0.02792 -0.0204,0.04225 0.0119,-0.01862 0.0232,-0.03666 0.035,-0.05536 z m -0.0715,0.06556 c -0.20184,0.183354 -0.40328,0.366412 -0.59997,0.55506 -0.006,0.0098 -0.013,0.0193 -0.019,0.02914 0.0342,-0.02294 0.0922,-0.06554 0.11824,-0.08595 0.14585,-0.115031 0.28745,-0.235663 0.43064,-0.354015 0.0234,-0.04612 0.0466,-0.09445 0.0701,-0.144228 z m -0.60581,0.887222 c -0.11221,0.07942 -0.22696,0.157182 -0.3416,0.233096 -0.0495,0.08205 -0.0956,0.161412 -0.13868,0.23601 0.15359,-0.126429 0.3105,-0.278569 0.48028,-0.469106 z m -0.20875,0.367127 c -0.16643,0.187867 -0.33577,0.373882 -0.50217,0.562344 -0.17105,0.185615 -0.31082,0.339412 -0.48758,0.489502 -0.15206,0.166292 -0.29355,0.310034 -0.43356,0.442883 0.0302,0.136715 0.0614,0.274451 0.0949,0.412289 0.44517,-0.632511 0.88814,-1.269125 1.32842,-1.907018 z m -0.64377,0.687634 c -0.007,0.0013 -0.0198,0.0064 -0.0394,0.01602 l -0.001,0.0015 c -0.0409,0.04825 -0.082,0.09491 -0.12116,0.139858 0.0916,-0.07375 0.15703,-0.130519 0.16787,-0.150056 l 0.001,-0.0015 v -0.0015 -0.0015 -0.0015 -0.0015 h -0.001 c -2.6e-4,2.9e-5 -0.002,2.1e-5 -0.003,0 z" /><path
         id="path206"
         class="cls-2"
         transform="translate(-39.74,-2.1)"
         d="m 302.45964,-13.68863 c -0.008,0.01026 -0.0292,0.06644 -0.0598,0.155883 0.0156,-0.04358 0.043,-0.111974 0.0598,-0.155883 z" /><path
         id="path222"
         class="cls-2"
         d="m 257.8,25.64 -2.39,1.5 z"
         transform="translate(-39.74,-2.1)" /><path
         id="path235"
         class="cls-2"
         d="M 257.11,32.62 258,33.81 Z"
         transform="translate(-39.74,-2.1)" /><path
         id="path237"
         class="cls-2"
         d="m 257.9,33.71 0.9,0.9 z"
         transform="translate(-39.74,-2.1)" /><path
         id="path240"
         class="cls-2"
         d="m 258.8,34.61 0.9,0.9 z"
         transform="translate(-39.74,-2.1)" /><path
         id="path266"
         class="cls-5"
         d="m 174,694.37 0.89,0.9 z"
         transform="translate(-39.74,-2.1)" /><path
         id="path271"
         class="cls-5"
         d="m 218.65,698.55 0.9,-0.89 z"
         transform="translate(-39.74,-2.1)" /><path
         id="path279"
         class="cls-5"
         d="m 173.23,693.47 0.89,0.9 z"
         transform="translate(-39.74,-2.1)" /><path
         id="path296"
         class="cls-22"
         d="M 223,691.89 Z"
         transform="translate(-39.74,-2.1)" /><path
         id="path302"
         class="cls-22"
         d="m 218.85,694.67 0.9,-0.9 z"
         transform="translate(-39.74,-2.1)" /><path
         id="path303"
         class="cls-22"
         d="m 178,694.57 0.8,0.8 z"
         transform="translate(-39.74,-2.1)" /><path
         id="path305"
         class="cls-22"
         d="m 227.82,694.57 0.89,0.9 z"
         transform="translate(-39.74,-2.1)" /><path
         id="path314"
         class="cls-22"
         d="m 176.32,692.18 0.79,0.8 z"
         transform="translate(-39.74,-2.1)" /><path
         id="path360"
         class="cls-22"
         d="M 285,731.13 Z"
         transform="translate(-39.74,-2.1)" /><path
         id="path413"
         class="cls-22"
         d="m 230.61,682.12 -0.9,0.89 z"
         transform="translate(-39.74,-2.1)" /><path
         id="path426"
         class="cls-22"
         d="M 326,650.54 Z"
         transform="translate(-39.74,-2.1)" /><path
         id="path432"
         class="cls-22"
         d="m 327.63,695.47 1.8,0.89 z"
         transform="translate(-39.74,-2.1)" /><path
         id="path438"
         class="cls-22"
         d="M 328.73,699.89 Z"
         transform="translate(-39.74,-2.1)" /><path
         id="path455"
         class="cls-22"
         d="M 317,722.89 Z"
         transform="translate(-39.74,-2.1)" /><path
         id="path456"
         class="cls-22"
         d="m 353.63,686.1 0.9,0.9 z"
         transform="translate(-39.74,-2.1)" /></g></g></svg>
